<?xml version="1.0" encoding="utf-8"?>
<!-- Generator: Adobe Illustrator 25.1.0, SVG Export Plug-In . SVG Version: 6.00 Build 0)  -->
<svg version="1.1" id="Camada_1" xmlns="http://www.w3.org/2000/svg" xmlns:xlink="http://www.w3.org/1999/xlink" x="0px" y="0px"
	 viewBox="0 0 170 170" style="enable-background:new 0 0 170 170;" xml:space="preserve">
<style type="text/css">
	.st0{fill:url(#SVGID_2_);}
</style>
<g id="Camada_1_1_">
	<g>
		
			<linearGradient id="SVGID_2_" gradientUnits="userSpaceOnUse" x1="16.01" y1="89.715" x2="153.6" y2="89.715" gradientTransform="matrix(1 0 0 -1 0 170)">
			<stop  offset="5.030000e-02" style="stop-color:#200942"/>
			<stop  offset="0.2804" style="stop-color:#230B63"/>
			<stop  offset="0.7169" style="stop-color:#5F0D81"/>
		</linearGradient>
		<path id="SVGID_1_" class="st0" d="M31.8,81.3v0.4v4.4v0.5l-1.5-0.8v6.3h0v4.9h-9.3H16v-4.9V68.5v-4.9h5.1h4.2h5.1v4.9v5.4h-5
			v-5.4h-4.2V92h4.2v-8.3h1.3L24,82.3v-5.3L31.8,81.3z M48.9,68.5V92v4.9h-5.1h-4.2h-5.1V92V68.5v-4.9h5.1h4.2h5.1V68.5z M43.8,92
			V68.5h-4.2V92C39.6,92,43.8,92,43.8,92z M61.4,63.7l4.6,2.6v0.3v0.4v4.7v0.6v3.3V85v3.4V89v4.7v0.4v0.2l-4.6,2.6h0h-4.6h-2.3h-2.8
			V92V68.5v-4.9h2.8h2.3L61.4,63.7L61.4,63.7L61.4,63.7z M60.9,85v-9.5v-6.2l-1.6-0.8h-2.7v23.5h2.7l1.6-0.9V85z M92.5,96.9h-5.1
			h-4.2H78V92v-9.1v-2.1v-3.3l5.1,2.8v0.5v4.4v0.4V92h4.2V74V63.7h5.1V74v18.1C92.5,92.1,92.5,96.9,92.5,96.9z M109.6,96.9h-5.1
			h-4.2h-5.1V92V63.6h5.1V92h4.2V63.6h5.1V92V96.9z M119.1,81.3l-1.3-0.7v11.3v5.1h-5.1l0-5.1V85v-6.4h1.5l-1.6-0.8v0l-1.3-0.7v-0.5
			v-4.4v-0.4l1.3,0.7v-8.8h5.1v11.6l1.3,0.7V81.3z M131,74v-5.5h-4.2v23.5h4.2v-9.1v-2.1v-3.3l5.1,2.8v0.5v4.4v0.4v6.3v4.9H131h-4.2
			h-5.1v-4.9V68.5v-4.9h5.1h4.2h5.1v4.9V74H131z M153.6,63.7v4.9V74h-5.1v-5.4h-4.2v6.8l5.2,2.9v5.3l-5.2-2.9v11.5h4.2v-0.2v-0.9
			v-0.1v-0.5v-0.5v-3.9v-0.4l5.1,2.8v2.7v1.2v1.5v3.3h-5.1h-4.2h-5.1V92V78.5h1.3l-1.3-0.7l-1.3-0.7v-0.5v-4.4v-0.4l1.3,0.7v-3.9
			v-4.9h5.1h4.2L153.6,63.7L153.6,63.7z"/>
	</g>
</g>
</svg>
