<?xml version="1.0" encoding="utf-8"?>
<!-- Generator: Adobe Illustrator 25.1.0, SVG Export Plug-In . SVG Version: 6.00 Build 0)  -->
<svg version="1.1" xmlns="http://www.w3.org/2000/svg" xmlns:xlink="http://www.w3.org/1999/xlink" x="0px" y="0px"
	 viewBox="0 0 170 100" style="enable-background:new 0 0 170 100;" xml:space="preserve">
<style type="text/css">
	.st0{fill:none;stroke:#19057A;stroke-width:0.9;stroke-linecap:round;stroke-miterlimit:10;}
</style>
<g id="Camada_1">
	<defs>
		<path id="SVGID_1_" d="M31.64,39.13c-0.76,0-1.56-0.08-2.4-0.24c-1.33-0.25-2.6-0.68-3.81-1.29c-0.33-0.17-0.66-0.34-0.98-0.52
			c-1.22-0.66-2.26-1.13-3.11-1.38l0.02,0.01l-0.08-0.03c-0.5-0.13-0.96-0.21-1.41-0.22h0.02h-0.02c-0.3,0.02-0.49,0.04-0.59,0.06
			l-0.05,0.02l0.05-0.02c-0.15,0.04-0.29,0.1-0.4,0.16l0.04-0.02c-0.07,0.04-0.16,0.11-0.28,0.2l0.04-0.04l-0.12,0.16
			c0,0,0.01-0.01,0.01-0.02s0.01-0.02,0.01-0.02c0,0.03-0.03,0.08-0.06,0.16c-0.02,0.05-0.04,0.08-0.05,0.09
			c0-0.04,0.01-0.05,0.02-0.06c-0.01,0.06-0.02,0.16-0.03,0.29l-0.01-0.05c0.01,0.03,0.01,0.06,0.01,0.09v0.04
			c0,0.04,0,0.07,0.01,0.1s0.01,0.06,0.01,0.09c0-0.04,0-0.05-0.01-0.06c0,0.06,0.03,0.13,0.08,0.21l-0.03-0.05
			c0.01,0.01,0.04,0.05,0.1,0.13c0,0-0.01,0-0.02-0.01s-0.02-0.02-0.02-0.02c0,0,0.01,0.01,0.02,0.01s0.02,0.01,0.04,0.03
			s0.03,0.02,0.04,0.02c0.01,0.02,0.02,0.02,0.02,0.02c-0.02-0.02-0.03-0.03-0.04-0.04l-0.01,0.01c0,0.01,0.04,0.03,0.13,0.07
			l-0.06-0.02c0.25,0.06,0.38,0.21,0.38,0.44c0,0.14-0.05,0.24-0.15,0.32c-0.08,0.06-0.16,0.09-0.25,0.09h-0.06
			c-0.32-0.07-0.58-0.24-0.76-0.51s-0.28-0.56-0.28-0.88c0-0.06,0-0.13,0.01-0.19c0.06-0.56,0.33-0.98,0.8-1.26
			c0.42-0.25,0.92-0.38,1.49-0.38c0.6,0,1.32,0.15,2.14,0.44c0.48,0.16,0.94,0.36,1.39,0.57c0.21,0.11,0.94,0.48,2.18,1.12
			c1.89,0.98,3.8,1.48,5.74,1.52l-0.04,0.01c0.77,0,1.36-0.03,1.76-0.1c0.1-0.02,0.19-0.03,0.26-0.03c0.14,0,0.26,0.04,0.36,0.13
			c0.07,0.07,0.1,0.15,0.1,0.25c0,0.14-0.06,0.25-0.18,0.32c-0.27,0.15-0.61,0.23-1.01,0.23C32.32,39.11,32,39.13,31.64,39.13z
			 M38.52,40.63c-0.7,0-1.33-0.22-1.9-0.67c-0.46-0.36-0.74-0.82-0.84-1.39c-0.02-0.11-0.03-0.22-0.03-0.32
			c0-0.62,0.27-1.22,0.81-1.8c0.57-0.62,0.96-0.93,1.17-0.93c0.1,0,0.2,0.04,0.29,0.12c0.08,0.07,0.12,0.17,0.12,0.3
			c0,0.11-0.04,0.2-0.12,0.27c-0.3,0.27-0.61,0.52-0.93,0.77c-1.07,0.83-2.3,1.51-3.69,2.03l-0.09,0.01
			c-0.2,0.02-0.33-0.07-0.41-0.27c-0.01-0.04-0.02-0.07-0.02-0.11c0-0.07,0.02-0.15,0.07-0.23s0.12-0.15,0.22-0.2
			c0.66-0.31,1.24-0.6,1.75-0.86s0.99-0.55,1.43-0.86l0.19-0.14l0.1-0.07h0.01l0.02-0.02l-0.02,0.01l0.02-0.02
			c0.26-0.2,0.51-0.4,0.76-0.62l0.6,0.58c-0.2,0.16-0.39,0.33-0.58,0.5c-0.15,0.15-0.29,0.29-0.41,0.43L37,37.2l0.02-0.03
			c-0.11,0.14-0.2,0.28-0.27,0.41l-0.02,0.06c0,0.02-0.01,0.03-0.02,0.05L36.7,37.7l0.02-0.04c-0.05,0.11-0.09,0.23-0.11,0.36
			c0,0.02-0.01,0.04-0.01,0.04s0,0.01,0,0.02l0.01-0.04c-0.01,0.05-0.01,0.1-0.01,0.16l0.01,0.17v0.06l-0.01-0.05v0.02
			c0,0.04,0.02,0.12,0.07,0.24c0.01,0.02,0.01,0.04,0.02,0.06l0.01,0.01c0-0.02,0-0.02-0.01-0.02l0.04,0.08
			c0.04,0.08,0.1,0.17,0.18,0.29l-0.02-0.03l0.06,0.06c0.14,0.14,0.22,0.23,0.26,0.26l0.03,0.02l-0.02-0.01l0.02,0.01
			c0.01,0,0.04,0.02,0.08,0.05c0.1,0.07,0.2,0.12,0.29,0.17c0.01,0,0.02,0.01,0.04,0.01s0.03,0.01,0.04,0.01s0.02,0.01,0.04,0.02
			l-0.04-0.01c0.13,0.05,0.29,0.1,0.51,0.15l0.06,0.01l-0.05-0.01l0.08,0.01l0.21,0.01c0.12,0,0.21,0,0.28-0.01l0.03-0.01h0.04
			L38.8,39.8c0.32-0.06,0.56-0.12,0.73-0.19l0.04-0.01l0.12-0.06c0.32-0.15,0.6-0.31,0.81-0.48c0.01,0,0.02,0,0.02-0.01
			s0.01-0.01,0.02-0.01s0.01,0,0.01-0.01l-0.02,0.02c0.15-0.12,0.3-0.24,0.45-0.38c0.31-0.3,0.55-0.56,0.73-0.79
			c0,0,0.01-0.01,0.02-0.03s0.02-0.03,0.02-0.03s0,0.01-0.01,0.02l0.05-0.06c0.26-0.34,0.48-0.69,0.67-1.05
			c0.1-0.18,0.2-0.37,0.28-0.56c-0.01,0.01-0.01,0.02-0.01,0.02s0,0,0,0.01V36.2c0-0.01,0.01-0.02,0.01-0.03s0.01-0.01,0.01-0.02
			s0.01-0.02,0.01-0.02c0.16-0.39,0.29-0.79,0.36-1.2l0.02-0.09l0.01-0.02c0.02-0.07,0.02-0.22,0.01-0.46l-0.01-0.29l0.01,0.04
			l-0.01-0.05c-0.02-0.1-0.05-0.24-0.12-0.42c-0.03-0.08-0.04-0.12-0.04-0.12v-0.01l0.02,0.04H43v-0.01
			c-0.05-0.11-0.11-0.22-0.19-0.32c-0.03-0.04-0.04-0.07-0.05-0.08l-0.02-0.03l0.02,0.03c-0.11-0.14-0.21-0.23-0.29-0.29
			c-0.01,0-0.01-0.01-0.02-0.01s-0.01-0.01-0.01-0.01l0.04,0.02c-0.01-0.01-0.02-0.02-0.03-0.02s-0.03-0.02-0.06-0.04
			c-0.06-0.04-0.14-0.08-0.23-0.12l0.04,0.02l-0.06-0.02c-0.05-0.02-0.1-0.04-0.15-0.05l-0.19-0.04l0.05,0.01l-0.19-0.01
			c-0.09,0-0.19,0-0.28,0.01h-0.01c0,0,0.01,0,0.01,0s0.02,0,0.04,0l-0.08,0.01c-0.04,0-0.11,0.02-0.21,0.05
			c-0.08,0.02-0.15,0.05-0.22,0.08c-0.03,0.01-0.05,0.02-0.06,0.02c0-0.01,0.01-0.01,0.04-0.02l-0.04,0.02
			c-0.23,0.1-0.45,0.22-0.64,0.36c0,0-0.01,0.01-0.02,0.01s-0.02,0.01-0.02,0.01s0,0.01-0.01,0.01l0.04-0.02
			c-0.15,0.11-0.31,0.25-0.49,0.43c-0.08,0.09-0.13,0.14-0.15,0.18l-0.02,0.03l0.02-0.03c-0.01,0.01-0.01,0.01-0.01,0.02
			s0,0.01-0.01,0.01c-0.15,0.2-0.28,0.41-0.39,0.62l-0.14,0.28l0.02-0.04l-0.01,0.04c-0.14,0.36-0.24,0.7-0.3,1.03
			c0,0,0,0.01,0,0.02s0,0.02,0,0.05v-0.04c0,0.03,0,0.06-0.01,0.1c-0.02,0.18-0.02,0.31-0.02,0.38c0,0.17,0.01,0.32,0.02,0.45
			c0,0.01,0,0.03,0,0.05l-0.01-0.03v-0.01c0,0.02,0.02,0.11,0.06,0.28s0.08,0.32,0.14,0.47l0.02,0.06l0.02,0.05
			c0.11,0.22,0.21,0.38,0.3,0.48l0.01,0.02l0.04,0.04c0.12,0.14,0.25,0.26,0.39,0.38l0.05,0.04l-0.04-0.02
			c0.04,0.03,0.06,0.04,0.07,0.04s0.01,0.01,0.02,0.01c0.17,0.11,0.34,0.21,0.51,0.29l0.05,0.02h0.01c0.01,0,0.02,0.01,0.03,0.01
			s0.02,0.01,0.03,0.01c0.26,0.09,0.55,0.17,0.87,0.22l-0.04-0.01l0.06,0.01c0.19,0.02,0.32,0.02,0.4,0.02
			c0.2,0,0.35-0.01,0.46-0.02l0.02-0.01c0.01,0,0.02,0,0.03,0s0.02,0,0.03-0.01l-0.01,0.01c0,0-0.01,0-0.03,0
			c0.39-0.05,0.8-0.16,1.22-0.33L43.4,38.7l0.04-0.01c0.02,0,0.02-0.01,0.02-0.02c0.19-0.07,0.4-0.18,0.64-0.32
			c0.22-0.13,0.41-0.25,0.55-0.36c0.07-0.05,0.11-0.08,0.12-0.08c0,0-0.01,0-0.01,0s-0.01,0-0.01,0.01s-0.01,0.01-0.01,0.01
			c0,0,0-0.01,0.01-0.01c0.13-0.09,0.24-0.13,0.32-0.13c0.1,0,0.19,0.04,0.29,0.13c0.09,0.07,0.13,0.17,0.13,0.3
			c0,0.11-0.04,0.2-0.13,0.26c-1.19,0.93-2.4,1.39-3.63,1.39c-0.91,0-1.72-0.24-2.41-0.72c-0.48-0.33-0.85-0.76-1.11-1.28
			c-0.25-0.52-0.38-1.07-0.38-1.65c0-0.53,0.09-1.04,0.26-1.55c0.19-0.53,0.46-1.02,0.81-1.46s0.79-0.8,1.3-1.08
			c0.47-0.25,0.94-0.38,1.39-0.38c0.71,0,1.29,0.27,1.74,0.81c0.45,0.54,0.67,1.15,0.67,1.85c0,0.56-0.13,1.17-0.4,1.83
			c-0.47,1.18-1.17,2.2-2.12,3.07c-0.45,0.41-0.96,0.75-1.54,1.01C39.5,40.53,39.02,40.63,38.52,40.63z M51.08,42.52
			c-0.21,0-0.4-0.06-0.56-0.18s-0.26-0.28-0.32-0.48c-0.03-0.14-0.04-0.28-0.04-0.42c0-0.24,0.04-0.47,0.12-0.7
			c0.23-0.66,0.67-1.21,1.32-1.65c0.9-0.6,2.08-0.9,3.55-0.9c0.16,0,0.27,0.04,0.35,0.12s0.12,0.18,0.13,0.29
			c0,0.11-0.04,0.21-0.13,0.29s-0.18,0.12-0.3,0.12c-0.32,0-0.64,0.02-0.96,0.05l-0.24,0.02h0.01c-0.01,0-0.03,0.01-0.05,0.01
			l-0.01,0.01l-0.11,0.02c-0.3,0.04-0.61,0.12-0.92,0.23l-0.21,0.08c-0.05,0.02-0.1,0.04-0.15,0.07c-0.2,0.09-0.4,0.21-0.59,0.35
			l-0.04,0.02l0.04-0.02c-0.02,0.02-0.04,0.03-0.06,0.05s-0.04,0.04-0.07,0.06c-0.14,0.12-0.27,0.25-0.39,0.39l-0.02,0.02
			c-0.01,0.02-0.02,0.03-0.02,0.03h0.01l0.02-0.03c-0.11,0.15-0.2,0.3-0.27,0.43l-0.02,0.05c-0.04,0.09-0.08,0.2-0.11,0.33
			l-0.02,0.12v0.03l-0.01,0.01v-0.03l0.01,0.04c0,0.06-0.01,0.15-0.01,0.27v0.04c0,0-0.01,0-0.01-0.01s0-0.02,0-0.02L51,41.58
			l0.01,0.01v0.03l0.02,0.05l0.02,0.06l-0.02-0.04c0,0,0.01,0.01,0.02,0.02l-0.04-0.03l0.05,0.03l-0.05-0.02h0.01
			c0,0,0.01,0.01,0.02,0.01s0.02,0,0.04,0l0.01,0.01l-0.06-0.01c0.04,0,0.07,0,0.08-0.01c-0.01,0-0.02-0.01-0.04-0.01l-0.01,0.01
			l0.04-0.01l0.08-0.02l-0.04,0.01l0.04-0.02c0.09-0.04,0.14-0.08,0.17-0.11l0.04-0.02l0.03-0.02c0.09-0.08,0.18-0.17,0.26-0.26
			l0.01-0.02h0.01l-0.04,0.05l0.03-0.05c0.02-0.02,0.06-0.08,0.13-0.2s0.13-0.23,0.18-0.34l-0.01,0.02h-0.01
			c0.01,0,0.01-0.01,0.01-0.01s0-0.01,0-0.01S52,40.66,52,40.65s0.01-0.02,0.01-0.02c0.13-0.3,0.32-0.9,0.58-1.79l0.18-0.61
			c0.45-1.43,0.83-2.83,1.15-4.22c0.05-0.23,0.11-0.48,0.15-0.74c0-0.01,0-0.01,0.01-0.02v0.01l-0.01,0.03c0-0.02,0-0.04,0.01-0.05
			V33.2l0.63,0.36l-0.03,0.02l-0.12,0.1c-0.38,0.33-0.69,0.66-0.96,0.99l-0.03,0.04c-0.19,0.23-0.44,0.58-0.75,1.03
			c-0.24,0.35-0.49,0.7-0.76,1.04c-0.7,0.9-1.49,1.55-2.37,1.94c-0.45,0.19-0.9,0.28-1.38,0.28c-0.17,0-0.35-0.01-0.52-0.04
			c-0.12-0.02-0.2-0.09-0.25-0.19c-0.04-0.07-0.05-0.15-0.05-0.22c0-0.03,0-0.06,0.01-0.09c0.06-0.2,0.21-0.29,0.44-0.29
			c0.07,0,0.11,0,0.11,0.01h-0.03l0.18,0.02c0.2,0,0.35-0.01,0.46-0.02l-0.04,0.01l0.06-0.01c0.01,0,0.02-0.01,0.02-0.01
			s0.01,0,0.02-0.01c0.18-0.03,0.35-0.08,0.52-0.14c0,0,0.01,0,0.02,0s0.03-0.01,0.07-0.03c0,0-0.01,0.01-0.03,0.01
			c0.21-0.07,0.5-0.23,0.86-0.48c0.01-0.01,0.02-0.02,0.04-0.03s0.02-0.01,0.02-0.01s0.01-0.01,0.04-0.03h-0.01l-0.02,0.02
			l0.03-0.02c0.44-0.36,0.79-0.71,1.06-1.05c0.01,0,0.01-0.01,0.02-0.02s0.01-0.02,0.03-0.03l-0.02,0.03v-0.01l0.04-0.04
			c0.04-0.04,0.22-0.29,0.54-0.74c0.34-0.51,0.72-1.02,1.14-1.54c0.36-0.44,0.76-0.83,1.22-1.18c0.07-0.04,0.14-0.06,0.21-0.06
			c0.07,0,0.16,0.03,0.26,0.09s0.16,0.17,0.16,0.32c-0.02,0.16-0.03,0.25-0.04,0.26c-0.07,0.45-0.16,0.83-0.25,1.15
			c-0.12,0.49-0.24,0.98-0.38,1.47c-0.21,0.79-0.55,1.93-1.01,3.41l-0.11,0.33c-0.08,0.29-0.17,0.57-0.26,0.84
			c-0.24,0.66-0.56,1.16-0.97,1.5C51.67,42.38,51.39,42.49,51.08,42.52z M55.94,40.65c-0.41,0-0.69-0.19-0.84-0.57
			c-0.05-0.16-0.08-0.32-0.08-0.49c0-0.46,0.13-1,0.39-1.64c0.25-0.7,0.57-1.37,0.96-2c0.09-0.14,0.21-0.21,0.36-0.21
			c0.07,0,0.15,0.02,0.22,0.05c0.14,0.08,0.21,0.21,0.21,0.38c0,0.07-0.02,0.14-0.06,0.21c-0.2,0.32-0.37,0.64-0.53,0.98
			c-0.09,0.18-0.2,0.46-0.35,0.84c-0.15,0.41-0.26,0.74-0.31,0.99l-0.01,0.04c-0.01,0.03-0.01,0.06-0.01,0.08l-0.01,0.11l-0.01,0.22
			l0.01,0.1l-0.01-0.05c0,0.01,0.01,0.02,0.01,0.02s0,0.02,0.01,0.04s0.01,0.05,0.02,0.07c-0.01-0.02-0.01-0.03-0.01-0.03
			s0-0.01,0-0.01l0.03,0.06l-0.03-0.04l0.02,0.02l-0.03-0.02l-0.01-0.01l0.04,0.01l0.04,0.01l-0.05-0.01l0.1-0.01l-0.04,0.01
			c0,0,0.01-0.01,0.03-0.01s0.03-0.01,0.04-0.01v-0.01l0.09-0.03c0,0,0-0.01,0.01-0.01l0.09-0.05c0.17-0.09,0.33-0.19,0.47-0.3
			l-0.03,0.02l0.04-0.03c0.06-0.05,0.12-0.1,0.18-0.15c0.47-0.42,0.89-0.86,1.27-1.34s0.74-0.96,1.09-1.47
			c0.1-0.14,0.22-0.21,0.36-0.21c0.07,0,0.14,0.02,0.22,0.05c0.13,0.08,0.2,0.2,0.2,0.36c0,0.07-0.02,0.15-0.05,0.22
			c-0.05,0.12-0.11,0.24-0.16,0.36l-0.05,0.12l-0.01,0.02l-0.02,0.05c0,0.02,0,0.02-0.01,0.02c-0.09,0.21-0.19,0.47-0.3,0.79
			c-0.13,0.36-0.21,0.69-0.26,1c0,0-0.01,0.01-0.01,0.03s0,0.03-0.01,0.04s-0.01,0.02-0.01,0.03v-0.02c0,0.05-0.01,0.11-0.01,0.17
			v0.07c0-0.02,0-0.02,0-0.03s0,0,0,0v0.01c0,0.01,0,0.02,0,0.02s0,0,0,0.01l0.02,0.07l-0.01-0.04c0.01,0.02,0.02,0.03,0.02,0.04
			s0.01,0.01,0.02,0.02l0.02,0.02l-0.03-0.02c0,0,0.01,0.01,0.01,0.01s0.01,0,0.01,0.01c0,0-0.01,0-0.01,0s-0.01,0-0.01,0
			s-0.01,0-0.01-0.01l0.02,0.01h-0.04h0.04h-0.04c0.02,0,0.02-0.01,0.03-0.01s0.01,0,0.01,0s0.02,0,0.02-0.01h0.01l-0.03,0.01
			c0.14-0.07,0.34-0.2,0.59-0.38c0.02-0.02,0.04-0.03,0.04-0.03s0.01-0.01,0.01-0.01s0.01-0.01,0.02-0.01l-0.02,0.01
			c0.33-0.24,0.7-0.6,1.11-1.1c0-0.01,0.01-0.02,0.02-0.04l0.02-0.01l-0.02,0.02l0.01-0.02c0.01-0.02,0.02-0.02,0.02-0.02l0.17-0.25
			c0.1-0.13,0.22-0.2,0.35-0.2c0.07,0,0.15,0.02,0.23,0.05c0.14,0.08,0.21,0.2,0.21,0.37c0,0.07-0.02,0.14-0.06,0.21
			c-0.45,0.67-1.02,1.26-1.7,1.76l-0.02,0.02c-0.39,0.31-0.72,0.46-0.99,0.46c-0.19,0-0.37-0.07-0.54-0.2
			c-0.22-0.21-0.34-0.47-0.34-0.78c0-0.27,0.04-0.54,0.12-0.8V38.7c0.14-0.57,0.41-1.3,0.81-2.21c0.01-0.01,0.01-0.03,0.02-0.04
			c0.25,0.14,0.49,0.28,0.73,0.43c-1.09,1.57-2.08,2.69-2.97,3.36c-0.25,0.2-0.54,0.33-0.84,0.4C56.07,40.64,56,40.65,55.94,40.65z
			 M62.19,40.59c-0.3,0-0.57-0.09-0.79-0.27c-0.3-0.23-0.45-0.57-0.45-1.03c0-0.32,0.08-0.73,0.25-1.24l0.03-0.11
			c0.17-0.56,0.36-1.11,0.57-1.65c0.08-0.2,0.22-0.3,0.42-0.3c0.16,0,0.28,0.07,0.36,0.21c0.04,0.07,0.06,0.13,0.06,0.2
			c0,0.04-0.01,0.08-0.02,0.12c-0.22,0.56-0.42,1.13-0.59,1.7l-0.01,0.01c-0.07,0.23-0.13,0.46-0.19,0.7
			c-0.02,0.07-0.03,0.13-0.04,0.18c0,0.01,0,0.01-0.01,0.01l0.01-0.04c0,0.02,0,0.04-0.01,0.05l-0.01,0.25l0.01,0.04l-0.01-0.04
			l0.04,0.16l0.01,0.04l-0.02-0.05c0.01,0.02,0.02,0.04,0.03,0.05s0.01,0.01,0.01,0.02s0,0.01,0.01,0.01
			c0.02,0.02,0.02,0.03,0.02,0.04l-0.02-0.03v0.01c0,0,0.01,0.01,0.01,0.01s0.01,0.01,0.01,0.01s0.01,0.01,0.02,0.01
			s0.02,0.01,0.02,0.01s0.01,0,0.01,0.01l-0.04-0.02L62,39.72c-0.01-0.01-0.02-0.01-0.02-0.01s0,0,0,0l0.16,0.04l-0.04-0.01h0.18
			l0.02-0.01c0.08-0.01,0.16-0.04,0.25-0.07l-0.02,0.01l0.02-0.01c0.01-0.01,0.02-0.01,0.04-0.01c0.19-0.1,0.42-0.24,0.67-0.42
			l0.17-0.12l0.06-0.05c0.38-0.31,0.73-0.65,1.05-1.02c0.08-0.08,0.17-0.12,0.28-0.12c0.01,0,0.04,0,0.1,0.01s0.13,0.04,0.22,0.12
			c0.08,0.08,0.12,0.18,0.12,0.28c0,0.01,0,0.04-0.01,0.1s-0.04,0.13-0.12,0.22c-0.41,0.48-0.87,0.9-1.38,1.27
			c-0.22,0.17-0.46,0.33-0.72,0.46S62.48,40.59,62.19,40.59z M62.73,34.91c-0.06,0-0.11-0.01-0.16-0.04
			c-0.05-0.02-0.1-0.05-0.13-0.09l-0.08-0.08c-0.05-0.05-0.09-0.11-0.11-0.19l-0.02-0.11c0-0.09,0.03-0.18,0.09-0.25
			s0.11-0.12,0.18-0.14c0.05-0.02,0.1-0.04,0.16-0.04s0.11,0.01,0.16,0.04c0.05,0.02,0.1,0.05,0.16,0.11
			c0.09,0.09,0.14,0.17,0.16,0.24l0.02,0.11c0,0.09-0.02,0.17-0.07,0.23l-0.05,0.06c-0.04,0.04-0.08,0.07-0.14,0.09
			C62.85,34.9,62.79,34.91,62.73,34.91z M66.21,40.67c-0.3,0-0.59-0.06-0.86-0.18s-0.48-0.29-0.65-0.53
			c-0.16-0.25-0.25-0.55-0.25-0.9c0-0.21,0.02-0.42,0.07-0.62c0.1-0.44,0.29-0.85,0.55-1.22c0.29-0.4,0.63-0.75,1.03-1.04
			c0.49-0.38,0.96-0.58,1.41-0.6c0.27,0,0.52,0.07,0.74,0.21s0.38,0.33,0.46,0.59c0.02,0.09,0.03,0.17,0.03,0.25
			c0,0.16-0.05,0.34-0.15,0.54s-0.28,0.33-0.54,0.38l-0.11,0.01c-0.2,0-0.33-0.1-0.42-0.3c-0.01-0.04-0.02-0.08-0.02-0.11
			c0-0.07,0.02-0.15,0.07-0.24s0.13-0.15,0.24-0.17c0,0,0.01,0,0.03,0s0.03-0.01,0.04-0.01h0.01c0,0-0.01,0.01-0.01,0.01
			s-0.01,0-0.02,0.01s-0.01,0-0.01,0v-0.01l0.04-0.01c0,0,0.01,0,0.01,0.01l-0.04,0.01c0,0,0-0.01,0-0.01s0,0,0.01,0
			s0.01-0.01,0.02-0.02v-0.01l-0.03,0.05l0.03-0.05l0.02-0.02v0.01l-0.03,0.03l0.02-0.05c0,0,0-0.01,0-0.02s0-0.02,0.01-0.02
			c0,0-0.01,0.01-0.01,0.03v-0.05l-0.01-0.01l0.02,0.04h-0.01c-0.01-0.03-0.01-0.05-0.01-0.07h-0.01c0,0.02,0,0.03,0.01,0.04h0.01
			l-0.01-0.01c-0.01-0.02-0.02-0.04-0.03-0.05s-0.02-0.01-0.02-0.01l0.04,0.03c-0.04-0.04-0.06-0.07-0.06-0.07l0.01,0.01l0.01,0.01
			c0.01,0.01,0.01,0.01,0.01,0.02l-0.02-0.01c-0.04-0.03-0.08-0.05-0.12-0.07l0.03,0.01l-0.01-0.01h-0.02
			c-0.03-0.02-0.07-0.03-0.11-0.03l-0.17,0.01c0.01,0,0.02,0,0.02-0.01h0.01c0,0-0.01,0.01-0.02,0.01s-0.03,0-0.04,0.01
			s-0.04,0.01-0.06,0.01s-0.05,0.01-0.07,0.02s-0.04,0.01-0.04,0.01s-0.02,0-0.03,0.01h0.01c0,0,0.01,0,0.02-0.01
			c-0.15,0.07-0.34,0.18-0.57,0.33c-0.09,0.06-0.14,0.09-0.14,0.1s0,0,0,0.01c0,0,0-0.01,0.01-0.01s0.01-0.01,0.01-0.01v0.01
			l-0.02,0.02c-0.25,0.2-0.47,0.42-0.66,0.66l0.02-0.03l-0.09,0.13c-0.11,0.15-0.2,0.31-0.28,0.47l-0.02,0.06l0.01-0.01
			c0-0.01,0-0.01,0.01-0.02c0,0.01,0,0.02-0.01,0.02v0.02l-0.01,0.01c-0.08,0.21-0.14,0.41-0.16,0.6c0,0,0.01-0.01,0.01-0.02
			l-0.01,0.23c0,0.08,0,0.13,0.01,0.16V39.2l-0.01-0.01l0.01,0.01v0.04l0.06,0.21l-0.01-0.02h0.01l0.07,0.12
			c-0.01-0.01-0.01-0.01-0.01-0.02s0-0.01-0.01-0.01v0.01c0.05,0.06,0.08,0.09,0.08,0.09s0,0,0.01,0.01s0,0.01,0.01,0.01
			s0.01,0,0.01,0.01s0.01,0.01,0.01,0.01l-0.02-0.02c0,0,0,0.01,0.01,0.01s0.01,0,0.01,0.01s0,0,0.01,0l0.01,0.01
			c0.07,0.05,0.14,0.09,0.19,0.11l-0.03-0.01c0,0,0.02,0.01,0.04,0.01c0.1,0.04,0.2,0.06,0.3,0.08l-0.02-0.01l0.07,0.01h0.09
			c0.11,0,0.19,0,0.25-0.01h-0.02l0.01-0.01c0.03,0,0.04,0,0.05-0.01c0.05,0,0.16-0.02,0.31-0.07s0.27-0.09,0.34-0.13
			c0.01,0,0.01,0,0.02-0.01c0,0-0.01,0.01-0.01,0.01s-0.01,0-0.02,0.01l0.08-0.03c0.21-0.1,0.45-0.22,0.7-0.37l0.07-0.04
			c0.47-0.27,0.89-0.52,1.24-0.77l0.11-0.08h0.01c0,0,0.01-0.01,0.02-0.02s0.03-0.02,0.04-0.03c0.17-0.14,0.32-0.28,0.47-0.44
			c0.08-0.08,0.18-0.12,0.28-0.12h0.1c0.06,0,0.13,0.04,0.21,0.12s0.13,0.17,0.13,0.28v0.1c0,0.06-0.04,0.14-0.12,0.22
			c-0.4,0.41-0.84,0.75-1.34,1.04c-0.46,0.29-0.93,0.56-1.41,0.8C67.15,40.54,66.65,40.67,66.21,40.67z M71.21,40.61
			c-0.26,0-0.53-0.06-0.79-0.18s-0.47-0.31-0.63-0.59c-0.11-0.23-0.17-0.47-0.17-0.72c0-0.36,0.1-0.74,0.29-1.15
			c0.25-0.52,0.57-1,0.97-1.42c0.45-0.5,0.95-0.76,1.48-0.77c0.26,0,0.51,0.06,0.75,0.19s0.42,0.31,0.54,0.55
			c0.07,0.17,0.11,0.34,0.11,0.5c0,0.39-0.19,0.77-0.57,1.13c-0.5,0.45-1.07,0.67-1.73,0.67c-0.39,0-0.77-0.09-1.14-0.28
			c-0.14-0.07-0.21-0.2-0.21-0.36c0-0.07,0.02-0.15,0.05-0.22c0.08-0.13,0.2-0.2,0.36-0.2c0.07,0,0.16,0.03,0.26,0.08l0.06,0.03
			c0,0-0.01,0-0.01,0s-0.01,0-0.02-0.01s-0.01-0.01-0.01-0.01l0.05,0.02c0.08,0.04,0.18,0.07,0.29,0.08
			c0.02,0.01,0.05,0.02,0.09,0.02l-0.04-0.01c0.02,0.01,0.1,0.01,0.23,0.01c0.13,0,0.22,0,0.27-0.01c-0.02,0.01-0.03,0.01-0.04,0.01
			h-0.01l0.04-0.01c0.01,0,0.01,0,0.02-0.01c0.19-0.03,0.33-0.07,0.43-0.12l-0.05,0.02c0.07-0.02,0.14-0.06,0.23-0.12
			s0.14-0.09,0.15-0.1l0.03-0.02l-0.04,0.03l0.02-0.02l0.25-0.25l0.02-0.02l-0.02,0.04v-0.01c0.02-0.02,0.03-0.04,0.04-0.05
			s0.02-0.02,0.02-0.04c0.02-0.03,0.04-0.05,0.05-0.08s0.02-0.04,0.02-0.04s0,0,0.01-0.01l-0.01,0.02l0.04-0.11l0.01-0.04v-0.08
			l0.01-0.01l0.01,0.01c0,0,0,0.01,0,0.01s0,0.01,0.01,0.01c0,0.01,0,0.01-0.01,0.01c0,0-0.01-0.01-0.01-0.02s0-0.02-0.01-0.02
			s0-0.02-0.01-0.02s-0.01-0.02-0.01-0.02s0-0.01,0.01-0.01l0.02,0.04l-0.02-0.02c-0.02-0.03-0.02-0.05-0.03-0.05s0-0.01-0.01-0.01
			s-0.01-0.02-0.02-0.04l0.03,0.03l-0.12-0.12l0.04,0.04l-0.18-0.11v-0.01l0.04,0.03l-0.05-0.02c-0.09-0.02-0.14-0.04-0.16-0.04
			s-0.03,0-0.03-0.01l0.01-0.01l0.04,0.02c-0.02-0.01-0.04-0.01-0.06-0.01s-0.04,0-0.06,0.01h-0.05c-0.02,0-0.04,0-0.04,0.01
			c0-0.01,0.01-0.01,0.04-0.01c-0.01,0.01-0.03,0.02-0.08,0.02s-0.08,0.02-0.11,0.03s-0.06,0.02-0.08,0.03l0.04-0.02l-0.04,0.02
			c-0.11,0.06-0.19,0.1-0.22,0.12l-0.04,0.03l-0.02,0.02c0,0,0-0.01,0.01-0.01s0.01-0.01,0.02-0.01l-0.22,0.2
			c-0.1,0.1-0.22,0.23-0.35,0.39l-0.03,0.04h0.01c0-0.01,0.01-0.02,0.02-0.03l-0.06,0.08c-0.17,0.22-0.34,0.49-0.5,0.8l-0.02,0.05
			c-0.02,0.02-0.02,0.04-0.02,0.05l0.01-0.02c-0.07,0.18-0.13,0.36-0.16,0.54l-0.01,0.04l0.01-0.03c-0.01,0.07-0.01,0.13-0.01,0.2
			v0.08c0,0.04,0.01,0.11,0.04,0.19c0-0.01,0-0.02-0.01-0.03l0.02,0.05c0.01,0.03,0.03,0.06,0.06,0.09l-0.03-0.03
			c0.03,0.04,0.06,0.07,0.1,0.09l0.02,0.03c0,0,0-0.01,0-0.01s-0.01-0.01-0.03-0.02l0.11,0.07c0.02,0,0.03,0.01,0.04,0.02
			s0.02,0.01,0.02,0.01s0.01,0,0.01,0.01l-0.01-0.01c-0.02,0-0.02-0.01-0.02-0.01c0.11,0.04,0.17,0.05,0.17,0.05s0.02,0,0.03,0.01
			s0.03,0.01,0.04,0.01s0.01,0,0.02,0h-0.02c0.07,0.01,0.14,0.01,0.22,0.01l0.21-0.02h-0.01l0.12-0.02c0.25-0.06,0.49-0.13,0.7-0.2
			l0.18-0.07l0.07-0.03c0,0-0.01,0.01-0.01,0.01s-0.01,0-0.01,0.01c0,0,0.01-0.01,0.04-0.02c0.34-0.15,0.69-0.4,1.06-0.74
			s0.64-0.6,0.81-0.78c0.09-0.08,0.19-0.12,0.3-0.12c0.11,0,0.21,0.04,0.29,0.12s0.13,0.17,0.13,0.28c0,0.01,0,0.04,0,0.1
			s-0.04,0.13-0.12,0.22c-0.8,0.94-1.69,1.57-2.66,1.89C71.92,40.54,71.55,40.61,71.21,40.61z M78.59,40.64
			c-0.34,0-0.65-0.11-0.91-0.32c-0.33-0.3-0.5-0.7-0.5-1.18c0-0.38,0.12-0.8,0.37-1.26c0.25-0.49,0.59-0.91,1.02-1.25
			c0.42-0.32,0.9-0.48,1.44-0.48c0.57,0.01,1.04,0.21,1.38,0.6c0.08,0.1,0.12,0.2,0.12,0.3c0,0.1-0.04,0.2-0.12,0.3
			c-0.08,0.08-0.18,0.12-0.32,0.12c-0.11,0-0.21-0.04-0.28-0.12c-0.02-0.02-0.06-0.07-0.13-0.14l-0.02-0.02l0.04,0.03l-0.05-0.04
			c-0.04-0.02-0.07-0.04-0.11-0.06c-0.01,0-0.02-0.01-0.03-0.01s-0.02-0.01-0.03-0.01s-0.01,0-0.02-0.01s-0.01,0-0.01-0.01
			l0.04,0.01c-0.1-0.04-0.21-0.06-0.31-0.08l-0.01-0.01h-0.02c0,0,0-0.01,0.01-0.01L80.16,37c-0.02-0.01-0.09-0.01-0.21-0.01
			l-0.21,0.01c0,0,0.01-0.01,0.02-0.01l0.02,0.01h-0.02L79.72,37c-0.1,0.02-0.19,0.05-0.29,0.08h-0.02l0.02-0.01h0.01l-0.04,0.02
			c-0.07,0.03-0.13,0.07-0.21,0.11c-0.11,0.07-0.17,0.11-0.19,0.13l0.04-0.02h-0.01l-0.02,0.02c-0.17,0.14-0.3,0.27-0.39,0.4
			l-0.04,0.04l0.01-0.01c0,0,0-0.01,0.01-0.01s0.01,0,0.01-0.01v-0.01l-0.01,0.02c-0.13,0.18-0.25,0.38-0.35,0.57
			c-0.06,0.12-0.1,0.18-0.1,0.2v0.02l-0.01,0.01l0.01-0.02v-0.01c-0.06,0.16-0.1,0.3-0.13,0.44L78.02,39L78.02,39v-0.01l0.01-0.01
			c0,0.03,0,0.05-0.01,0.06c0,0.1,0,0.17,0.01,0.22v-0.02c0,0.02,0,0.04,0.01,0.06c0,0.03,0.02,0.1,0.05,0.19v-0.01l0.05,0.09
			c0.01,0.02,0.02,0.04,0.04,0.06c-0.02-0.02-0.02-0.03-0.02-0.04l0.01,0.01l0.04,0.05c0.02,0.02,0.04,0.03,0.05,0.04
			s0.02,0.01,0.03,0.01l-0.01-0.01c-0.01,0-0.02-0.01-0.04-0.02l0.02,0.02l0.11,0.05l-0.02-0.01v-0.01h0.01
			c0.02,0.01,0.04,0.02,0.04,0.02s0.03,0.01,0.08,0.01c0,0,0.01,0.01,0.02,0.01l-0.04-0.01h0.04c0.02,0.01,0.05,0.01,0.1,0.01
			c0.06,0,0.12,0,0.18-0.01c-0.02,0-0.03,0-0.03,0.01l0.01-0.01l0.06-0.01c0.14-0.03,0.27-0.07,0.4-0.12l0.04-0.02
			c0,0,0,0.01-0.01,0.01s-0.02,0-0.02,0.01c0.03-0.02,0.06-0.03,0.09-0.04c0.05-0.02,0.1-0.05,0.15-0.08
			c0.16-0.09,0.31-0.18,0.45-0.29l-0.02,0.01l0.09-0.07c0.44-0.36,0.98-0.9,1.61-1.61c0.4-0.46,0.71-0.83,0.93-1.12l0.04-0.05V36.4
			l0.02-0.02l-0.01,0.02c0.32-0.41,0.62-0.83,0.91-1.27c0.25-0.38,0.43-0.7,0.56-0.97l0.09-0.19l0.01-0.01l-0.01,0.01l-0.01,0.02
			l0.04-0.09c0.11-0.29,0.2-0.59,0.25-0.9l0.01-0.05v0.02l-0.01,0.02c0.01-0.08,0.02-0.17,0.02-0.26c0,0.02,0,0.03,0.01,0.04h0.01
			c0,0,0-0.01,0-0.01s-0.01-0.01-0.01-0.02l0.02,0.04v-0.01c0,0-0.01,0-0.01,0s-0.01-0.01-0.02-0.02l0.01,0.01
			c0.02,0.04,0.05,0.06,0.09,0.06h-0.02c-0.02-0.01-0.03-0.01-0.04-0.01c0.03,0,0.04,0.01,0.05,0.01c0,0-0.01-0.01-0.02-0.01
			s-0.02,0-0.03-0.01c-0.02,0-0.05,0.01-0.1,0.01l-0.02,0.01l0.05-0.01l-0.07,0.01c-0.08,0.02-0.16,0.04-0.25,0.07l-0.01,0.01
			c-0.11,0.04-0.24,0.12-0.39,0.23l-0.2,0.18c-0.13,0.13-0.22,0.23-0.28,0.31v0.01l-0.04,0.05l-0.06,0.09
			c-0.18,0.24-0.36,0.54-0.55,0.92c-0.11,0.21-0.19,0.39-0.25,0.52l-0.01,0.03c-0.01,0.02-0.02,0.05-0.03,0.08
			c-0.19,0.47-0.33,0.95-0.43,1.44c-0.05,0.26-0.09,0.45-0.09,0.56L81.7,37.3c0,0.03,0,0.07-0.01,0.11
			c-0.03,0.25-0.04,0.5-0.05,0.76c0,0.16,0,0.27,0.01,0.35l0.01,0.17v-0.04l0.01,0.01c0,0.05,0,0.09,0.01,0.09
			c0.01,0.07,0.03,0.14,0.05,0.21c0.02,0.03,0.02,0.05,0.02,0.06h-0.01l-0.01-0.04L81.75,39c0,0.01,0.04,0.08,0.12,0.21l-0.02-0.03
			c0,0.01,0,0.02,0.01,0.02s0.01,0.01,0.01,0.02c0.07,0.07,0.11,0.1,0.12,0.1l-0.02-0.01l0.09,0.05l0.06,0.03l-0.03-0.02h-0.01h0.01
			c0.01,0.01,0.02,0.02,0.04,0.02c0.07,0.03,0.12,0.04,0.16,0.04l0.05,0.01l-0.05-0.01c0,0,0.01,0.01,0.02,0.01s0.02,0,0.04,0.01
			c0.15,0,0.25,0,0.3-0.01l-0.04,0.01l0.01-0.01h0.02c0.02-0.01,0.03-0.01,0.05-0.01c0.12-0.03,0.21-0.05,0.26-0.08l-0.04,0.02
			c0.2-0.1,0.32-0.18,0.38-0.23c0,0,0.01-0.01,0.02-0.02l0.02-0.02c0.33-0.27,0.69-0.63,1.08-1.1c0.08-0.08,0.17-0.12,0.28-0.12
			c0.01,0,0.04,0,0.1,0.01s0.13,0.04,0.21,0.12s0.12,0.17,0.12,0.28c0,0.01,0,0.04-0.01,0.1s-0.04,0.13-0.12,0.22
			c-0.14,0.16-0.28,0.31-0.42,0.46c-0.33,0.37-0.7,0.69-1.11,0.96c-0.33,0.19-0.67,0.28-1.03,0.28c-0.51,0-0.92-0.16-1.21-0.49
			c-0.32-0.35-0.48-0.85-0.48-1.51c0-0.28,0.02-0.57,0.05-0.88c0.13-1.17,0.47-2.28,1.03-3.32c0.16-0.3,0.35-0.61,0.57-0.9
			c0.49-0.68,1.06-1.08,1.71-1.2c0.09-0.02,0.19-0.03,0.28-0.03c0.07,0,0.16,0.01,0.27,0.03s0.24,0.09,0.36,0.21
			c0.12,0.14,0.19,0.3,0.19,0.47c0,0.2-0.01,0.38-0.04,0.53c-0.1,0.56-0.28,1.09-0.55,1.58s-0.57,0.97-0.91,1.43
			c-0.72,1-1.49,1.91-2.3,2.74c-0.39,0.42-0.81,0.8-1.27,1.13C79.66,40.44,79.13,40.63,78.59,40.64z M86.37,40.57
			c-0.24,0-0.48-0.04-0.71-0.13c-0.44-0.17-0.76-0.47-0.95-0.9c-0.13-0.29-0.2-0.6-0.2-0.91c0-0.14,0.01-0.28,0.04-0.42
			c0.15-0.83,0.55-1.52,1.2-2.06c0.33-0.27,0.69-0.47,1.08-0.59c0.22-0.07,0.44-0.1,0.67-0.1c0.67,0,1.06,0.2,1.19,0.6
			c0.02,0.06,0.03,0.13,0.03,0.19c0,0.18-0.06,0.37-0.19,0.57c-0.58,0.88-1.55,1.41-2.89,1.59c-0.11,0.02-0.22,0.02-0.31,0.02
			c-0.41,0-0.62-0.16-0.62-0.47c0-0.08,0.02-0.18,0.05-0.29c0.1,0,0.23-0.01,0.4-0.03l0.17-0.02c0.41-0.05,0.81-0.15,1.19-0.3
			l0.14-0.05c0.27-0.11,0.5-0.23,0.68-0.38v-0.01L87.3,36.9c0.19-0.15,0.33-0.29,0.43-0.42l-0.02,0.02l0.04-0.06
			c0.06-0.08,0.1-0.14,0.11-0.18v0.01h-0.01l0.01-0.01v-0.02c0,0,0.01-0.01,0.01-0.02s0-0.02,0-0.03l-0.01,0.05v-0.04
			c0,0.04,0.02,0.08,0.05,0.12l0.01,0.01l-0.02-0.01c0.01,0,0.02,0,0.03,0.01l-0.26-0.06c0.02,0,0.03,0,0.04,0.01
			c-0.07-0.01-0.13-0.01-0.21-0.01c-0.1,0-0.17,0-0.22,0.01l0.02-0.01c0,0,0,0.01-0.01,0.01s-0.02,0-0.04,0.01
			c-0.23,0.06-0.36,0.1-0.39,0.11c0,0-0.01,0.01-0.02,0.01l0.02-0.01l-0.01,0.01c-0.15,0.07-0.32,0.17-0.5,0.3l0.04-0.03
			c-0.21,0.17-0.37,0.33-0.49,0.49l-0.02,0.02l0.01-0.02c-0.14,0.2-0.26,0.4-0.35,0.58c0,0.01-0.01,0.01-0.01,0.02s0,0.01,0,0.01
			c-0.06,0.14-0.12,0.33-0.16,0.56l-0.01,0.03c-0.01,0.03-0.01,0.15-0.01,0.36c0,0.09,0,0.13,0.01,0.15v0.01l-0.01-0.05
			c0,0.01,0.01,0.02,0.01,0.03c0,0.05,0.03,0.14,0.08,0.27c0,0.02,0.01,0.03,0.01,0.03c0,0-0.01,0-0.01-0.01s0-0.01,0-0.02
			l-0.01-0.01c0.04,0.09,0.08,0.16,0.13,0.23c0,0,0.01,0,0.01,0.01c0,0,0-0.01,0-0.01s-0.01-0.01-0.02-0.02l0.17,0.16h-0.01
			l-0.02-0.02h0.01c0,0,0.02,0.02,0.05,0.04c0.08,0.05,0.15,0.09,0.21,0.12l-0.04-0.02h0.01c0.02,0.02,0.1,0.05,0.26,0.08
			c0.02,0,0.04,0.01,0.06,0.01l-0.05-0.01h0.03l0.01,0.01h0.3c0.01-0.01,0.03-0.01,0.05-0.01l-0.01,0.01l-0.02,0.01h-0.01
			c0,0,0-0.01,0.01-0.01c0.02,0,0.04,0,0.05-0.01c0.18-0.03,0.38-0.11,0.59-0.26l0.09-0.06l-0.02,0.02V39.4
			c0.07-0.04,0.2-0.17,0.39-0.39L87.65,39l-0.01,0.01c0.07-0.09,0.15-0.21,0.22-0.38l0.02-0.04v0.01c0,0,0-0.01,0-0.02
			s0-0.01,0.01-0.02s0-0.01,0.01-0.01s0.02-0.06,0.05-0.18l0.04-0.17c0,0.03,0,0.04-0.01,0.04l0.01-0.26c0-0.03,0-0.04-0.01-0.05
			c0,0,0.01,0.01,0.01,0.01s0,0.01,0.01,0.01v0.02l-0.05-0.2c0,0,0.01,0.01,0.01,0.01s0,0.01,0,0.02s0,0.01,0.01,0.01l-0.09-0.15
			h0.01l0.02,0.02v0.01c-0.02,0-0.04-0.02-0.06-0.05c-0.01-0.01-0.02-0.02-0.03-0.03l0.6-0.6l0.13,0.11l0.08,0.07
			c0.02,0.06,0.11,0.16,0.29,0.3l0.04,0.02l0.02,0.01c0.29,0.13,0.66,0.21,1.1,0.23c0.41,0.02,0.62,0.11,0.64,0.29
			c0.04,0.28-0.17,0.42-0.6,0.42c-0.41,0-0.79-0.04-1.11-0.11c-0.35-0.08-0.74-0.33-1.17-0.74c-0.08-0.08-0.12-0.17-0.12-0.28v-0.1
			c0-0.06,0.04-0.13,0.12-0.21s0.17-0.12,0.28-0.12h0.1c0.06,0,0.13,0.04,0.21,0.12c0.3,0.28,0.45,0.65,0.45,1.1
			c0,0.22-0.06,0.48-0.18,0.8s-0.33,0.61-0.62,0.9c-0.32,0.31-0.69,0.53-1.11,0.66C86.74,40.55,86.56,40.57,86.37,40.57z
			 M90.63,42.55c-0.22,0-0.44-0.04-0.65-0.13c-0.36-0.17-0.58-0.44-0.67-0.83c-0.01-0.09-0.02-0.17-0.02-0.25
			c0-0.27,0.06-0.54,0.18-0.8c0.27-0.61,0.68-1.11,1.22-1.49c0.95-0.66,2.19-1.07,3.73-1.24c0.13,0,0.23,0.04,0.3,0.13
			s0.11,0.18,0.12,0.29c0,0.12-0.04,0.22-0.13,0.29s-0.18,0.12-0.3,0.13l-0.18,0.02h0.02l-0.11,0.02c-0.65,0.08-1.33,0.26-2.03,0.53
			l-0.08,0.04l-0.06,0.03c-0.18,0.08-0.38,0.18-0.59,0.31c-0.14,0.09-0.23,0.15-0.27,0.18c-0.01,0-0.01,0.01-0.02,0.01
			s-0.02,0.01-0.04,0.03l0.03-0.02c-0.16,0.11-0.32,0.26-0.47,0.45l-0.08,0.09c0,0,0-0.01,0-0.01s0-0.01,0.01-0.01
			s0.01-0.01,0.02-0.02c-0.02,0.01-0.02,0.02-0.02,0.04c-0.12,0.16-0.21,0.31-0.26,0.45c0,0.01-0.01,0.02-0.01,0.02
			s-0.01,0.01-0.01,0.03v-0.01l0.01-0.02h0.01l-0.02,0.04c-0.05,0.13-0.08,0.23-0.09,0.3l-0.03,0.12l-0.01,0.01l0.01-0.04
			l-0.01,0.07v0.05c0,0.01,0,0.02,0.01,0.03v0.02c0.01,0.02,0.01,0.04,0.01,0.06c0,0,0.01,0,0.01,0.01s0,0.01,0,0.02
			s0,0.01,0.01,0.01v-0.01c-0.01-0.01-0.02-0.02-0.02-0.03s0-0.01,0-0.01l0.01,0.01c0,0,0,0.01,0.01,0.02s0.01,0.02,0.01,0.03
			s0.01,0.02,0.01,0.04s0.01,0.02,0.02,0.02c-0.02,0-0.02-0.01-0.02-0.02l-0.01-0.01h0.01c0,0,0.03,0.03,0.08,0.08l0.02,0.02
			l-0.01-0.01c0,0-0.01,0-0.01,0s-0.01,0-0.01-0.01s-0.01,0-0.01-0.01l0.07,0.04c0.02,0.02,0.05,0.04,0.07,0.04l-0.05-0.01
			c0.01,0,0.02,0,0.03,0.01s0.04,0.01,0.11,0.03c0.02,0.01,0.04,0.01,0.06,0.01l-0.04-0.01c0.01,0,0.04,0.01,0.07,0.01
			s0.08,0,0.11,0c0.01,0,0.03-0.01,0.08-0.01c0,0-0.01,0.01-0.02,0.01H90.7l0.09-0.02l0.17-0.05l0.02-0.01
			c0-0.01,0.01-0.01,0.02-0.01l0.01-0.01h0.01l0.05-0.02c0.07-0.04,0.15-0.09,0.22-0.14l0.02-0.01c0,0-0.01,0.01-0.01,0.01
			s-0.01,0.01-0.01,0.01s0,0-0.01,0c0.13-0.11,0.24-0.21,0.32-0.32l0.02-0.02l-0.01,0.02v-0.01c0,0,0-0.01,0.01-0.02
			c0.08-0.12,0.16-0.24,0.22-0.38l0.02-0.04v-0.01l0.01-0.02c0-0.02,0.01-0.03,0.02-0.04c0.02-0.09,0.04-0.17,0.06-0.24l0.01-0.01
			c0-0.02,0-0.03,0.01-0.04l-0.01,0.02c0.01-0.08,0.01-0.15,0.01-0.23c0-0.05,0-0.09-0.01-0.13v-0.05l-0.01-0.04l0.01,0.02V40
			l0.01-0.02c0-0.03-0.01-0.08-0.04-0.16c-0.01-0.03-0.04-0.13-0.09-0.29c0.01,0.02,0.01,0.04,0.01,0.04s0,0,0.01,0l-0.02-0.04
			c-0.04-0.09-0.09-0.17-0.14-0.25c-0.03-0.04-0.05-0.06-0.05-0.08h-0.01l0.02,0.03l-0.04-0.05c-0.08-0.09-0.16-0.18-0.26-0.25
			l0.02,0.02v-0.01l-0.05-0.03c-0.06-0.05-0.17-0.11-0.33-0.2c-0.23-0.12-0.45-0.27-0.63-0.45c-0.25-0.27-0.38-0.59-0.38-0.94
			c0-0.06,0-0.13,0.01-0.19c0.07-0.41,0.24-0.77,0.5-1.08c0.12-0.16,0.27-0.3,0.43-0.43c0.27-0.2,0.55-0.3,0.85-0.3
			c0.37,0,0.67,0.15,0.89,0.45c0.13,0.18,0.19,0.38,0.19,0.6c0,0.21-0.04,0.42-0.13,0.62c-0.18,0.35-0.43,0.64-0.75,0.88
			c-0.33,0.26-0.7,0.46-1.1,0.6c-0.04,0.01-0.08,0.02-0.12,0.02c-0.07,0-0.14-0.03-0.22-0.08s-0.14-0.13-0.18-0.23
			c-0.01-0.04-0.02-0.08-0.02-0.12c0-0.07,0.03-0.15,0.08-0.23s0.13-0.14,0.23-0.18l0.15-0.05l-0.02,0.01c0,0,0.01-0.01,0.02-0.01
			s0.02,0,0.02-0.01l0.04-0.02c0.15-0.07,0.31-0.16,0.47-0.28c0.02-0.01,0.03-0.02,0.05-0.04l0.02-0.02c0,0-0.01,0-0.02,0.01
			c0.18-0.14,0.32-0.27,0.41-0.39c0.02-0.02,0.03-0.03,0.04-0.04l-0.02,0.02v0.01l0.02-0.03c0.03-0.04,0.06-0.09,0.08-0.13
			l0.03-0.05c0-0.01,0-0.02,0.01-0.03s0.01-0.02,0.01-0.02l-0.01,0.02l0.01-0.03c0-0.01,0.01-0.04,0.03-0.1v-0.11
			c0-0.01,0-0.02,0-0.04s-0.01-0.04-0.03-0.07v-0.02c0,0.01,0,0.02,0.01,0.03v0.01l-0.04-0.06c0,0-0.01-0.01-0.01-0.01
			s-0.01,0-0.01-0.01v0.01c0,0,0.01,0,0.01,0.01s0.01,0.01,0.01,0.01v-0.01c-0.01,0-0.02-0.01-0.03-0.02l-0.02-0.02l0.02,0.01
			c-0.03-0.01-0.05-0.03-0.07-0.04h-0.01h0.01c0,0,0,0.01,0.01,0.01s0.01,0,0.01,0.01s0.01,0,0.01,0.01c0,0-0.01-0.01-0.02-0.01
			s-0.03-0.01-0.05-0.02h-0.11l0.04-0.01l-0.01,0.01c-0.07,0.01-0.11,0.02-0.13,0.04l-0.02,0.01l0.03-0.01l-0.01,0.01
			c-0.02,0.01-0.04,0.02-0.05,0.02s-0.05,0.03-0.12,0.08l-0.04,0.02v-0.01c0,0,0.01-0.01,0.01-0.01s0,0,0.01-0.01h0.01
			c0,0,0,0.01-0.01,0.01l-0.13,0.13l-0.18,0.2h-0.01h0.01l0.02-0.02v-0.01c0,0.01-0.01,0.03-0.04,0.05c0,0.01-0.01,0.02-0.02,0.03
			c-0.05,0.07-0.09,0.15-0.13,0.22l-0.01,0.02c-0.01,0.02-0.02,0.04-0.02,0.05v0.01l0.01-0.02c-0.03,0.07-0.05,0.15-0.07,0.23
			c-0.01,0.04-0.01,0.07-0.02,0.07l0.01-0.01v0.11c0,0.02,0,0.03,0.01,0.04v0.02c0,0-0.01-0.02-0.01-0.04l-0.01-0.01h0.01
			c0,0.02,0,0.03,0.01,0.03l0.01,0.06l0.02,0.06c0,0-0.01,0-0.01-0.01s0-0.01,0-0.01s0-0.01-0.01-0.01l0.06,0.11
			c0,0,0.01,0.01,0.02,0.02l0.01,0.02v-0.01c0,0-0.01-0.01-0.03-0.02h0.01c0,0,0.01,0.01,0.01,0.01s0.01,0.01,0.01,0.01
			s0.01,0.01,0.01,0.01c0.04,0.04,0.08,0.08,0.13,0.12l-0.02-0.02h0.01c0,0,0.01,0.01,0.01,0.01s0.01,0.01,0.02,0.01
			c0.03,0.02,0.14,0.09,0.33,0.2c0.78,0.43,1.23,1.05,1.35,1.88c0.01,0.11,0.02,0.21,0.02,0.31c0,0.63-0.23,1.2-0.7,1.69
			c-0.28,0.29-0.61,0.5-0.98,0.61C90.95,42.53,90.79,42.55,90.63,42.55z M102.55,40.84h-0.03c-0.54,0-0.95-0.19-1.22-0.57
			c-0.11-0.18-0.16-0.36-0.16-0.55c0-0.1,0.01-0.2,0.04-0.3c0.1-0.28,0.27-0.52,0.49-0.72c0.4-0.38,0.85-0.66,1.35-0.87
			c0.77-0.31,1.63-0.46,2.59-0.46c0.63,0,1.48,0.09,2.57,0.26l0.08,0.01c0.11,0.02,0.2,0.09,0.25,0.19
			c0.04,0.07,0.05,0.15,0.05,0.22l-0.01,0.09c-0.05,0.2-0.2,0.29-0.43,0.29c-0.05,0-0.23-0.02-0.52-0.07
			c-0.16-0.02-0.26-0.03-0.29-0.04c-0.02,0-0.03,0-0.04-0.01h-0.02l0.03,0.01l-0.02-0.01c-0.57-0.08-1.13-0.12-1.71-0.13
			c-0.27,0-0.53,0.01-0.8,0.04c-0.07,0.01-0.12,0.02-0.14,0.02h-0.01l0.01-0.01h0.03l-0.02,0.01l-0.17,0.02
			c-0.36,0.06-0.69,0.15-1,0.27c-0.01,0-0.02,0-0.03,0.01s-0.02,0.01-0.03,0.01s-0.02,0.01-0.02,0.01l0.02-0.01l-0.06,0.03
			l-0.13,0.06c-0.29,0.14-0.51,0.28-0.67,0.4l0.02-0.02c0,0,0,0.01-0.01,0.01s-0.02,0.01-0.02,0.02s-0.02,0.01-0.04,0.03
			c-0.1,0.08-0.22,0.19-0.36,0.33c0,0.01-0.01,0.02-0.02,0.03l0.01-0.01l-0.08,0.13v0.01c-0.01,0.01-0.02,0.02-0.02,0.03
			s0,0.02,0,0.02l-0.01,0.01v-0.02L102,39.6v0.01c0,0.01-0.01,0.02-0.01,0.03s0,0.02-0.01,0.03s-0.01,0.01-0.01,0.02l-0.01,0.01
			l-0.01-0.01l0.01-0.02l0.01,0.01v0.1c0,0,0.01,0,0.01-0.01v-0.01l-0.01-0.02l0.01,0.02c0,0,0,0.01,0,0.02s0.01,0.02,0.01,0.02
			v0.01c0,0-0.01,0-0.01-0.01s0-0.01-0.01-0.03c0,0,0,0.01,0.01,0.01s0.01,0.01,0.01,0.01s0,0.01,0.01,0.01s0.01,0.01,0.02,0.02
			c0,0.01,0,0.01,0.01,0.01v0.01L102,39.81c0.02,0.02,0.03,0.04,0.04,0.05s0.03,0.03,0.04,0.04s0.02,0.02,0.03,0.03l-0.04-0.03h0.01
			c0.01,0.01,0.02,0.02,0.02,0.02l0.07,0.05h0.02c0,0,0.01,0.01,0.01,0.01s0.01,0,0.02,0.01l-0.04-0.01
			c0.04,0.02,0.08,0.03,0.12,0.04c0,0,0.02,0.01,0.04,0.01c0,0,0.01,0.01,0.03,0.01l-0.09-0.01l0.25,0.01
			c0.18,0,0.35-0.01,0.51-0.03l0.24-0.02h-0.05c0.19-0.01,0.39-0.05,0.6-0.12c0.01,0,0.02,0,0.03-0.01h0.01
			c-0.02,0.01-0.04,0.02-0.04,0.02s-0.01,0-0.02,0.01c0.05-0.03,0.11-0.06,0.18-0.08c0.18-0.07,0.4-0.2,0.66-0.36l0.19-0.13
			l0.01-0.01c0,0,0.01,0,0.02-0.01s0.02-0.01,0.03-0.01l-0.03,0.02v-0.01c0.01,0,0.02-0.01,0.05-0.04h0.01l0.16-0.13
			c0.26-0.23,0.47-0.45,0.65-0.66c0,0,0.01-0.01,0.02-0.03s0.02-0.02,0.03-0.03s0.01-0.01,0.01-0.01v0.01l-0.02,0.02l0.1-0.13
			c0.27-0.36,0.49-0.74,0.67-1.14l0.04-0.07v-0.01h0.01l-0.01,0.01c0,0-0.01,0.01-0.01,0.01s0,0.01,0,0.01s0,0.01-0.01,0.01h0.01
			v-0.01c0.01-0.01,0.01-0.02,0.02-0.04s0.01-0.03,0.02-0.04c0.04-0.09,0.07-0.19,0.11-0.28c0.15-0.41,0.26-0.83,0.33-1.24
			l0.01-0.03c0-0.03,0-0.04,0.01-0.05l-0.01,0.02l0.01-0.08c0.01-0.11,0.02-0.22,0.02-0.33c0-0.12-0.01-0.24-0.02-0.36V34.6
			l0.01,0.03l-0.05-0.21c-0.02-0.1-0.05-0.17-0.07-0.22l-0.01-0.04c0,0.02,0.01,0.03,0.01,0.03l-0.01-0.02
			c-0.05-0.1-0.11-0.2-0.17-0.29l-0.02-0.02l-0.04-0.04c-0.06-0.07-0.12-0.13-0.19-0.19l-0.02-0.01l0.01,0.01
			c0,0,0.01,0.01,0.03,0.02c-0.04-0.03-0.09-0.05-0.13-0.08s-0.09-0.05-0.13-0.07l0.04,0.02l-0.01-0.01c0,0-0.01,0-0.01-0.01
			s-0.01-0.01-0.02-0.01s-0.02,0-0.03-0.01s-0.03-0.01-0.06-0.02s-0.06-0.02-0.09-0.02c-0.02,0-0.03,0-0.04-0.01h0.02l-0.16-0.01
			l-0.13,0.01l-0.02,0.01l0.01-0.01h0.02c-0.13,0.02-0.24,0.05-0.35,0.09l-0.02,0.01l-0.02,0.01h-0.01
			c-0.03,0.02-0.05,0.03-0.06,0.03h-0.01c-0.11,0.05-0.21,0.11-0.31,0.17s-0.15,0.1-0.16,0.11l0.02-0.02h-0.01l-0.11,0.09
			c-0.24,0.19-0.49,0.45-0.76,0.78l-0.08,0.09c0.01-0.01,0.01-0.02,0.02-0.02h0.01h-0.01v0.01l-0.06,0.08l-0.3,0.4
			c-1.19,1.64-2.23,3.36-3.11,5.17c-0.07,0.13-0.19,0.2-0.36,0.2c-0.17,0-0.3-0.08-0.39-0.23c-0.03-0.05-0.05-0.11-0.05-0.18
			c0-0.04,0.01-0.07,0.02-0.11l0.33-0.95l0.25-0.7l0.98-2.8c0.2-0.57,0.33-0.96,0.4-1.15l0.16-0.45l0.04-0.13l0.46-1.29l0.77,0.32
			c-0.3,0.58-0.62,1.16-0.94,1.72c-0.37,0.64-0.79,1.24-1.26,1.82s-1,1.09-1.6,1.53s-1.26,0.78-1.99,1
			c-0.04,0.01-0.08,0.02-0.12,0.02c-0.07,0-0.15-0.02-0.23-0.07s-0.14-0.13-0.18-0.23c-0.01-0.04-0.02-0.08-0.02-0.11
			c0-0.07,0.03-0.14,0.08-0.22s0.13-0.14,0.23-0.17c0.14-0.04,0.29-0.09,0.43-0.14l0.11-0.04l-0.03,0.01l0.02-0.01
			c0.01,0,0.02-0.01,0.03-0.02c0.43-0.19,0.84-0.43,1.24-0.72l0.03-0.02v0.01l-0.03,0.02l0.09-0.07c0.3-0.25,0.54-0.46,0.7-0.62
			c0.66-0.66,1.29-1.53,1.9-2.61c0.28-0.49,0.55-0.99,0.81-1.49c0.07-0.13,0.2-0.2,0.36-0.2s0.29,0.08,0.38,0.23
			c0.03,0.05,0.04,0.11,0.04,0.17s-0.1,0.37-0.3,0.94l-1.66,4.7l-0.68,1.94c-0.3-0.12-0.55-0.22-0.77-0.32
			c0.6-1.22,1.23-2.36,1.9-3.41c0.79-1.22,1.46-2.15,2.02-2.78c0.59-0.66,1.23-1.06,1.93-1.19c0.11-0.02,0.21-0.03,0.32-0.03
			c0.27,0,0.54,0.06,0.82,0.19c0.24,0.12,0.45,0.28,0.62,0.49c0.37,0.45,0.56,0.96,0.57,1.56c0,0.3-0.03,0.6-0.08,0.9
			c-0.16,0.91-0.49,1.77-0.99,2.56s-1.16,1.44-1.97,1.94c-0.34,0.22-0.71,0.37-1.11,0.46C103.37,40.79,102.96,40.83,102.55,40.84z
			 M109.57,40.61c-0.26,0-0.53-0.06-0.79-0.18s-0.47-0.31-0.63-0.59c-0.11-0.23-0.17-0.47-0.17-0.72c0-0.36,0.1-0.74,0.29-1.15
			c0.25-0.52,0.57-1,0.97-1.42c0.45-0.5,0.95-0.76,1.48-0.77c0.26,0,0.51,0.06,0.75,0.19s0.42,0.31,0.54,0.55
			c0.07,0.17,0.11,0.34,0.11,0.5c0,0.39-0.19,0.77-0.57,1.13c-0.5,0.45-1.07,0.67-1.73,0.67c-0.39,0-0.77-0.09-1.14-0.28
			c-0.14-0.07-0.21-0.2-0.21-0.36c0-0.07,0.02-0.15,0.05-0.22c0.08-0.13,0.2-0.2,0.36-0.2c0.07,0,0.16,0.03,0.26,0.08l0.06,0.03
			c0,0-0.01,0-0.01,0s-0.01,0-0.02-0.01s-0.01-0.01-0.01-0.01l0.05,0.02c0.08,0.04,0.18,0.07,0.29,0.08
			c0.02,0.01,0.05,0.02,0.09,0.02l-0.04-0.01c0.02,0.01,0.1,0.01,0.23,0.01c0.13,0,0.22,0,0.27-0.01c-0.02,0.01-0.03,0.01-0.04,0.01
			h-0.01l0.04-0.01c0.01,0,0.01,0,0.02-0.01c0.19-0.03,0.33-0.07,0.43-0.12l-0.05,0.02c0.07-0.02,0.14-0.06,0.23-0.12
			s0.14-0.09,0.15-0.1l0.03-0.02l-0.04,0.03l0.02-0.02l0.25-0.25l0.02-0.02l-0.02,0.04v-0.01c0.02-0.02,0.03-0.04,0.04-0.05
			s0.02-0.02,0.02-0.04c0.02-0.03,0.04-0.05,0.05-0.08s0.02-0.04,0.02-0.04s0,0,0.01-0.01l-0.01,0.02l0.04-0.11l0.01-0.04v-0.08
			l0.01-0.01l0.01,0.01c0,0,0,0.01,0,0.01s0,0.01,0.01,0.01c0,0.01,0,0.01-0.01,0.01c0,0-0.01-0.01-0.01-0.02s0-0.02-0.01-0.02
			s0-0.02-0.01-0.02s-0.01-0.02-0.01-0.02s0-0.01,0.01-0.01l0.02,0.04l-0.02-0.02c-0.02-0.03-0.02-0.05-0.03-0.05s0-0.01-0.01-0.01
			s-0.01-0.02-0.02-0.04l0.03,0.03l-0.12-0.12l0.04,0.04l-0.18-0.11v-0.01l0.04,0.03l-0.05-0.02c-0.09-0.02-0.14-0.04-0.16-0.04
			s-0.03,0-0.03-0.01l0.01-0.01l0.04,0.02c-0.02-0.01-0.04-0.01-0.06-0.01s-0.04,0-0.06,0.01h-0.05c-0.02,0-0.04,0-0.04,0.01
			c0-0.01,0.01-0.01,0.04-0.01c-0.01,0.01-0.03,0.02-0.08,0.02s-0.08,0.02-0.11,0.03s-0.06,0.02-0.08,0.03l0.04-0.02l-0.04,0.02
			c-0.11,0.06-0.19,0.1-0.22,0.12l-0.04,0.03l-0.02,0.02c0,0,0-0.01,0.01-0.01s0.01-0.01,0.02-0.01l-0.22,0.2
			c-0.1,0.1-0.22,0.23-0.35,0.39l-0.03,0.04h0.01c0-0.01,0.01-0.02,0.02-0.03l-0.06,0.08c-0.17,0.22-0.34,0.49-0.5,0.8l-0.02,0.05
			c-0.02,0.02-0.02,0.04-0.02,0.05L109,38.4c-0.07,0.18-0.13,0.36-0.16,0.54l-0.01,0.04l0.01-0.03c-0.01,0.07-0.01,0.13-0.01,0.2
			v0.08c0,0.04,0.01,0.11,0.04,0.19c0-0.01,0-0.02-0.01-0.03l0.02,0.05c0.01,0.03,0.03,0.06,0.06,0.09l-0.03-0.03
			c0.03,0.04,0.06,0.07,0.1,0.09l0.02,0.03c0,0,0-0.01,0-0.01s-0.01-0.01-0.03-0.02l0.11,0.07c0.02,0,0.03,0.01,0.04,0.02
			s0.02,0.01,0.02,0.01s0.01,0,0.01,0.01l-0.01-0.01c-0.02,0-0.02-0.01-0.02-0.01c0.11,0.04,0.17,0.05,0.17,0.05s0.02,0,0.03,0.01
			s0.03,0.01,0.04,0.01s0.01,0,0.02,0h-0.02c0.07,0.01,0.14,0.01,0.22,0.01l0.21-0.02h-0.01l0.12-0.02c0.25-0.06,0.49-0.13,0.7-0.2
			l0.18-0.07l0.07-0.03c0,0-0.01,0.01-0.01,0.01s-0.01,0-0.01,0.01c0,0,0.01-0.01,0.04-0.02c0.34-0.15,0.69-0.4,1.06-0.74
			s0.64-0.6,0.81-0.78c0.09-0.08,0.19-0.12,0.3-0.12c0.11,0,0.21,0.04,0.29,0.12s0.13,0.17,0.13,0.28c0,0.01,0,0.04,0,0.1
			s-0.04,0.13-0.12,0.22c-0.8,0.94-1.69,1.57-2.66,1.89C110.28,40.54,109.91,40.61,109.57,40.61z M113.44,40.65
			c-0.41,0-0.69-0.19-0.84-0.57c-0.05-0.16-0.08-0.32-0.08-0.49c0-0.46,0.13-1,0.39-1.64c0.25-0.7,0.57-1.37,0.96-2
			c0.09-0.14,0.21-0.21,0.36-0.21c0.07,0,0.15,0.02,0.22,0.05c0.14,0.08,0.21,0.21,0.21,0.38c0,0.07-0.02,0.14-0.06,0.21
			c-0.2,0.32-0.37,0.64-0.53,0.98c-0.09,0.18-0.2,0.46-0.35,0.84c-0.15,0.41-0.26,0.74-0.31,0.99l-0.01,0.04
			c-0.01,0.03-0.01,0.06-0.01,0.08l-0.01,0.11l-0.01,0.22l0.01,0.1l-0.01-0.05c0,0.01,0.01,0.02,0.01,0.02s0,0.02,0.01,0.04
			s0.01,0.05,0.02,0.07c-0.01-0.02-0.01-0.03-0.01-0.03s0-0.01,0-0.01l0.03,0.06l-0.03-0.04l0.02,0.02l-0.03-0.02l-0.01-0.01
			l0.04,0.01l0.04,0.01l-0.05-0.01l0.1-0.01l-0.04,0.01c0,0,0.01-0.01,0.03-0.01s0.03-0.01,0.04-0.01v-0.01l0.09-0.03
			c0,0,0-0.01,0.01-0.01l0.09-0.05c0.17-0.09,0.33-0.19,0.47-0.3l-0.03,0.02l0.04-0.03c0.06-0.05,0.12-0.1,0.18-0.15
			c0.47-0.42,0.89-0.86,1.27-1.34s0.74-0.96,1.09-1.47c0.1-0.14,0.22-0.21,0.36-0.21c0.07,0,0.14,0.02,0.22,0.05
			c0.13,0.08,0.2,0.2,0.2,0.36c0,0.07-0.02,0.15-0.05,0.22c-0.05,0.12-0.11,0.24-0.16,0.36l-0.05,0.12l-0.01,0.02l-0.02,0.05
			c0,0.02,0,0.02-0.01,0.02c-0.09,0.21-0.19,0.47-0.3,0.79c-0.13,0.36-0.21,0.69-0.26,1c0,0-0.01,0.01-0.01,0.03s0,0.03-0.01,0.04
			s-0.01,0.02-0.01,0.03v-0.02c0,0.05-0.01,0.11-0.01,0.17v0.07c0-0.02,0-0.02,0-0.03s0,0,0,0v0.01c0,0.01,0,0.02,0,0.02s0,0,0,0.01
			l0.02,0.07l-0.01-0.04c0.01,0.02,0.02,0.03,0.02,0.04s0.01,0.01,0.02,0.02l0.02,0.02l-0.03-0.02c0,0,0.01,0.01,0.01,0.01
			s0.01,0,0.01,0.01c0,0-0.01,0-0.01,0s-0.01,0-0.01,0s-0.01,0-0.01-0.01l0.02,0.01h-0.04h0.04h-0.04c0.02,0,0.02-0.01,0.03-0.01
			s0.01,0,0.01,0s0.02,0,0.02-0.01h0.01l-0.03,0.01c0.14-0.07,0.34-0.2,0.59-0.38c0.02-0.02,0.04-0.03,0.04-0.03
			s0.01-0.01,0.01-0.01s0.01-0.01,0.02-0.01l-0.02,0.01c0.33-0.24,0.7-0.6,1.11-1.1c0-0.01,0.01-0.02,0.02-0.04l0.02-0.01
			l-0.02,0.02l0.01-0.02c0.01-0.02,0.02-0.02,0.02-0.02l0.17-0.25c0.1-0.13,0.22-0.2,0.35-0.2c0.07,0,0.15,0.02,0.23,0.05
			c0.14,0.08,0.21,0.2,0.21,0.37c0,0.07-0.02,0.14-0.06,0.21c-0.45,0.67-1.02,1.26-1.7,1.76l-0.02,0.02
			c-0.39,0.31-0.72,0.46-0.99,0.46c-0.19,0-0.37-0.07-0.54-0.2c-0.22-0.21-0.34-0.47-0.34-0.78c0-0.27,0.04-0.54,0.12-0.8V38.7
			c0.14-0.57,0.41-1.3,0.81-2.21c0.01-0.01,0.01-0.03,0.02-0.04c0.25,0.14,0.49,0.28,0.73,0.43c-1.09,1.57-2.08,2.69-2.97,3.36
			c-0.25,0.2-0.54,0.33-0.84,0.4C113.58,40.64,113.51,40.65,113.44,40.65z M119.15,42.55c-0.22,0-0.44-0.04-0.65-0.13
			c-0.36-0.17-0.58-0.44-0.67-0.83c-0.01-0.09-0.02-0.17-0.02-0.25c0-0.27,0.06-0.54,0.18-0.8c0.27-0.61,0.68-1.11,1.22-1.49
			c0.95-0.66,2.19-1.07,3.73-1.24c0.13,0,0.23,0.04,0.3,0.13s0.11,0.18,0.12,0.29c0,0.12-0.04,0.22-0.13,0.29s-0.18,0.12-0.3,0.13
			l-0.18,0.02h0.02l-0.11,0.02c-0.65,0.08-1.33,0.26-2.03,0.53l-0.08,0.04l-0.06,0.03c-0.18,0.08-0.38,0.18-0.59,0.31
			c-0.14,0.09-0.23,0.15-0.27,0.18c-0.01,0-0.01,0.01-0.02,0.01s-0.02,0.01-0.04,0.03l0.03-0.02c-0.16,0.11-0.32,0.26-0.47,0.45
			l-0.08,0.09c0,0,0-0.01,0-0.01s0-0.01,0.01-0.01s0.01-0.01,0.02-0.02c-0.02,0.01-0.02,0.02-0.02,0.04
			c-0.12,0.16-0.21,0.31-0.26,0.45c0,0.01-0.01,0.02-0.01,0.02s-0.01,0.01-0.01,0.03v-0.01l0.01-0.02h0.01l-0.02,0.04
			c-0.05,0.13-0.08,0.23-0.09,0.3l-0.03,0.12l-0.01,0.01l0.01-0.04l-0.01,0.07v0.05c0,0.01,0,0.02,0.01,0.03v0.02
			c0.01,0.02,0.01,0.04,0.01,0.06c0,0,0.01,0,0.01,0.01s0,0.01,0,0.02s0,0.01,0.01,0.01v-0.01c-0.01-0.01-0.02-0.02-0.02-0.03
			s0-0.01,0-0.01l0.01,0.01c0,0,0,0.01,0.01,0.02s0.01,0.02,0.01,0.03s0.01,0.02,0.01,0.04s0.01,0.02,0.02,0.02
			c-0.02,0-0.02-0.01-0.02-0.02l-0.01-0.01h0.01c0,0,0.03,0.03,0.08,0.08l0.02,0.02l-0.01-0.01c0,0-0.01,0-0.01,0s-0.01,0-0.01-0.01
			s-0.01,0-0.01-0.01l0.07,0.04c0.02,0.02,0.05,0.04,0.07,0.04l-0.05-0.01c0.01,0,0.02,0,0.03,0.01s0.04,0.01,0.11,0.03
			c0.02,0.01,0.04,0.01,0.06,0.01L119,41.7c0.01,0,0.04,0.01,0.07,0.01s0.08,0,0.11,0c0.01,0,0.03-0.01,0.08-0.01
			c0,0-0.01,0.01-0.02,0.01h-0.02l0.09-0.02l0.17-0.05l0.02-0.01c0-0.01,0.01-0.01,0.02-0.01l0.01-0.01h0.01l0.05-0.02
			c0.07-0.04,0.15-0.09,0.22-0.14l0.02-0.01c0,0-0.01,0.01-0.01,0.01s-0.01,0.01-0.01,0.01s0,0-0.01,0
			c0.13-0.11,0.24-0.21,0.32-0.32l0.02-0.02l-0.01,0.02v-0.01c0,0,0-0.01,0.01-0.02c0.08-0.12,0.16-0.24,0.22-0.38l0.02-0.04v-0.01
			l0.01-0.02c0-0.02,0.01-0.03,0.02-0.04c0.02-0.09,0.04-0.17,0.06-0.24l0.01-0.01c0-0.02,0-0.03,0.01-0.04l-0.01,0.02
			c0.01-0.08,0.01-0.15,0.01-0.23c0-0.05,0-0.09-0.01-0.13v-0.05l-0.01-0.04l0.01,0.02V40l0.01-0.02c0-0.03-0.01-0.08-0.04-0.16
			c-0.01-0.03-0.04-0.13-0.09-0.29c0.01,0.02,0.01,0.04,0.01,0.04s0,0,0.01,0l-0.02-0.04c-0.04-0.09-0.09-0.17-0.14-0.25
			c-0.03-0.04-0.05-0.06-0.05-0.08h-0.01l0.02,0.03l-0.04-0.05c-0.08-0.09-0.16-0.18-0.26-0.25l0.02,0.02v-0.01l-0.05-0.03
			c-0.06-0.05-0.17-0.11-0.33-0.2c-0.23-0.12-0.45-0.27-0.63-0.45c-0.25-0.27-0.38-0.59-0.38-0.94c0-0.06,0-0.13,0.01-0.19
			c0.07-0.41,0.24-0.77,0.5-1.08c0.12-0.16,0.27-0.3,0.43-0.43c0.27-0.2,0.55-0.3,0.85-0.3c0.37,0,0.67,0.15,0.89,0.45
			c0.13,0.18,0.19,0.38,0.19,0.6c0,0.21-0.04,0.42-0.13,0.62c-0.18,0.35-0.43,0.64-0.75,0.88c-0.33,0.26-0.7,0.46-1.1,0.6
			c-0.04,0.01-0.08,0.02-0.12,0.02c-0.07,0-0.14-0.03-0.22-0.08s-0.14-0.13-0.18-0.23c-0.01-0.04-0.02-0.08-0.02-0.12
			c0-0.07,0.03-0.15,0.08-0.23s0.13-0.14,0.23-0.18l0.15-0.05l-0.02,0.01c0,0,0.01-0.01,0.02-0.01s0.02,0,0.02-0.01l0.04-0.02
			c0.15-0.07,0.31-0.16,0.47-0.28c0.02-0.01,0.03-0.02,0.05-0.04l0.02-0.02c0,0-0.01,0-0.02,0.01c0.18-0.14,0.32-0.27,0.41-0.39
			c0.02-0.02,0.03-0.03,0.04-0.04l-0.02,0.02v0.01l0.02-0.03c0.03-0.04,0.06-0.09,0.08-0.13l0.03-0.05c0-0.01,0-0.02,0.01-0.03
			s0.01-0.02,0.01-0.02l-0.01,0.02l0.01-0.03c0-0.01,0.01-0.04,0.03-0.1v-0.11c0-0.01,0-0.02,0-0.04s-0.01-0.04-0.03-0.07v-0.02
			c0,0.01,0,0.02,0.01,0.03v0.01l-0.04-0.06c0,0-0.01-0.01-0.01-0.01s-0.01,0-0.01-0.01v0.01c0,0,0.01,0,0.01,0.01
			s0.01,0.01,0.01,0.01v-0.01c-0.01,0-0.02-0.01-0.03-0.02l-0.02-0.02l0.02,0.01c-0.03-0.01-0.05-0.03-0.07-0.04h-0.01h0.01
			c0,0,0,0.01,0.01,0.01s0.01,0,0.01,0.01s0.01,0,0.01,0.01c0,0-0.01-0.01-0.02-0.01s-0.03-0.01-0.05-0.02h-0.11l0.04-0.01
			l-0.01,0.01c-0.07,0.01-0.11,0.02-0.13,0.04l-0.02,0.01l0.03-0.01l-0.01,0.01c-0.02,0.01-0.04,0.02-0.05,0.02
			s-0.05,0.03-0.12,0.08l-0.04,0.02v-0.01c0,0,0.01-0.01,0.01-0.01s0,0,0.01-0.01h0.01c0,0,0,0.01-0.01,0.01l-0.13,0.13l-0.18,0.2
			h-0.01h0.01l0.02-0.02v-0.01c0,0.01-0.01,0.03-0.04,0.05c0,0.01-0.01,0.02-0.02,0.03c-0.05,0.07-0.09,0.15-0.13,0.22l-0.01,0.02
			c-0.01,0.02-0.02,0.04-0.02,0.05v0.01l0.01-0.02c-0.03,0.07-0.05,0.15-0.07,0.23c-0.01,0.04-0.01,0.07-0.02,0.07l0.01-0.01v0.11
			c0,0.02,0,0.03,0.01,0.04v0.02c0,0-0.01-0.02-0.01-0.04l-0.01-0.01h0.01c0,0.02,0,0.03,0.01,0.03l0.01,0.06l0.02,0.06
			c0,0-0.01,0-0.01-0.01s0-0.01,0-0.01s0-0.01-0.01-0.01l0.06,0.11c0,0,0.01,0.01,0.02,0.02l0.01,0.02v-0.01
			c0,0-0.01-0.01-0.03-0.02h0.01c0,0,0.01,0.01,0.01,0.01s0.01,0.01,0.01,0.01s0.01,0.01,0.01,0.01c0.04,0.04,0.08,0.08,0.13,0.12
			l-0.02-0.02h0.01c0,0,0.01,0.01,0.01,0.01s0.01,0.01,0.02,0.01c0.03,0.02,0.14,0.09,0.33,0.2c0.78,0.43,1.23,1.05,1.35,1.88
			c0.01,0.11,0.02,0.21,0.02,0.31c0,0.63-0.23,1.2-0.7,1.69c-0.28,0.29-0.61,0.5-0.98,0.61C119.47,42.53,119.31,42.55,119.15,42.55z
			 M124.22,40.61c-0.26,0-0.53-0.06-0.79-0.18s-0.47-0.31-0.63-0.59c-0.11-0.23-0.17-0.47-0.17-0.72c0-0.36,0.1-0.74,0.29-1.15
			c0.25-0.52,0.57-1,0.97-1.42c0.45-0.5,0.95-0.76,1.48-0.77c0.26,0,0.51,0.06,0.75,0.19s0.42,0.31,0.54,0.55
			c0.07,0.17,0.11,0.34,0.11,0.5c0,0.39-0.19,0.77-0.57,1.13c-0.5,0.45-1.07,0.67-1.73,0.67c-0.39,0-0.77-0.09-1.14-0.28
			c-0.14-0.07-0.21-0.2-0.21-0.36c0-0.07,0.02-0.15,0.05-0.22c0.08-0.13,0.2-0.2,0.36-0.2c0.07,0,0.16,0.03,0.26,0.08l0.06,0.03
			c0,0-0.01,0-0.01,0s-0.01,0-0.02-0.01s-0.01-0.01-0.01-0.01l0.05,0.02c0.08,0.04,0.18,0.07,0.29,0.08
			c0.02,0.01,0.05,0.02,0.09,0.02l-0.04-0.01c0.02,0.01,0.1,0.01,0.23,0.01c0.13,0,0.22,0,0.27-0.01c-0.02,0.01-0.03,0.01-0.04,0.01
			h-0.01l0.04-0.01c0.01,0,0.01,0,0.02-0.01c0.19-0.03,0.33-0.07,0.43-0.12l-0.05,0.02c0.07-0.02,0.14-0.06,0.23-0.12
			s0.14-0.09,0.15-0.1l0.03-0.02l-0.04,0.03l0.02-0.02l0.25-0.25l0.02-0.02l-0.02,0.04v-0.01c0.02-0.02,0.03-0.04,0.04-0.05
			s0.02-0.02,0.02-0.04c0.02-0.03,0.04-0.05,0.05-0.08s0.02-0.04,0.02-0.04s0,0,0.01-0.01l-0.01,0.02l0.04-0.11l0.01-0.04v-0.08
			l0.01-0.01l0.01,0.01c0,0,0,0.01,0,0.01s0,0.01,0.01,0.01c0,0.01,0,0.01-0.01,0.01c0,0-0.01-0.01-0.01-0.02s0-0.02-0.01-0.02
			s0-0.02-0.01-0.02s-0.01-0.02-0.01-0.02s0-0.01,0.01-0.01l0.02,0.04l-0.02-0.02c-0.02-0.03-0.02-0.05-0.03-0.05s0-0.01-0.01-0.01
			s-0.01-0.02-0.02-0.04l0.03,0.03l-0.12-0.12l0.04,0.04l-0.18-0.11v-0.01l0.04,0.03l-0.05-0.02c-0.09-0.02-0.14-0.04-0.16-0.04
			s-0.03,0-0.03-0.01l0.01-0.01l0.04,0.02c-0.02-0.01-0.04-0.01-0.06-0.01s-0.04,0-0.06,0.01h-0.05c-0.02,0-0.04,0-0.04,0.01
			c0-0.01,0.01-0.01,0.04-0.01c-0.01,0.01-0.03,0.02-0.08,0.02s-0.08,0.02-0.11,0.03s-0.06,0.02-0.08,0.03l0.04-0.02l-0.04,0.02
			c-0.11,0.06-0.19,0.1-0.22,0.12l-0.04,0.03l-0.02,0.02c0,0,0-0.01,0.01-0.01s0.01-0.01,0.02-0.01l-0.22,0.2
			c-0.1,0.1-0.22,0.23-0.35,0.39l-0.03,0.04h0.01c0-0.01,0.01-0.02,0.02-0.03l-0.06,0.08c-0.17,0.22-0.34,0.49-0.5,0.8l-0.02,0.05
			c-0.02,0.02-0.02,0.04-0.02,0.05l0.01-0.02c-0.07,0.18-0.13,0.36-0.16,0.54l-0.01,0.04l0.01-0.03c-0.01,0.07-0.01,0.13-0.01,0.2
			v0.08c0,0.04,0.01,0.11,0.04,0.19c0-0.01,0-0.02-0.01-0.03l0.02,0.05c0.01,0.03,0.03,0.06,0.06,0.09l-0.03-0.03
			c0.03,0.04,0.06,0.07,0.1,0.09l0.02,0.03c0,0,0-0.01,0-0.01s-0.01-0.01-0.03-0.02l0.11,0.07c0.02,0,0.03,0.01,0.04,0.02
			s0.02,0.01,0.02,0.01s0.01,0,0.01,0.01l-0.01-0.01c-0.02,0-0.02-0.01-0.02-0.01c0.11,0.04,0.17,0.05,0.17,0.05s0.02,0,0.03,0.01
			s0.03,0.01,0.04,0.01s0.01,0,0.02,0h-0.02c0.07,0.01,0.14,0.01,0.22,0.01l0.21-0.02h-0.01l0.12-0.02c0.25-0.06,0.49-0.13,0.7-0.2
			l0.18-0.07l0.07-0.03c0,0-0.01,0.01-0.01,0.01s-0.01,0-0.01,0.01c0,0,0.01-0.01,0.04-0.02c0.34-0.15,0.69-0.4,1.06-0.74
			s0.64-0.6,0.81-0.78c0.09-0.08,0.19-0.12,0.3-0.12c0.11,0,0.21,0.04,0.29,0.12s0.13,0.17,0.13,0.28c0,0.01,0,0.04,0,0.1
			s-0.04,0.13-0.12,0.22c-0.8,0.94-1.69,1.57-2.66,1.89C124.93,40.54,124.56,40.61,124.22,40.61z M127.84,42.55
			c-0.22,0-0.44-0.04-0.65-0.13c-0.36-0.17-0.58-0.44-0.67-0.83c-0.01-0.09-0.02-0.17-0.02-0.25c0-0.27,0.06-0.54,0.18-0.8
			c0.27-0.61,0.68-1.11,1.22-1.49c0.95-0.66,2.19-1.07,3.73-1.24c0.13,0,0.23,0.04,0.3,0.13s0.11,0.18,0.12,0.29
			c0,0.12-0.04,0.22-0.13,0.29s-0.18,0.12-0.3,0.13l-0.18,0.02h0.02l-0.11,0.02c-0.65,0.08-1.33,0.26-2.03,0.53l-0.08,0.04
			l-0.06,0.03c-0.18,0.08-0.38,0.18-0.59,0.31c-0.14,0.09-0.23,0.15-0.27,0.18c-0.01,0-0.01,0.01-0.02,0.01s-0.02,0.01-0.04,0.03
			l0.03-0.02c-0.16,0.11-0.32,0.26-0.47,0.45l-0.08,0.09c0,0,0-0.01,0-0.01s0-0.01,0.01-0.01s0.01-0.01,0.02-0.02
			c-0.02,0.01-0.02,0.02-0.02,0.04c-0.12,0.16-0.21,0.31-0.26,0.45c0,0.01-0.01,0.02-0.01,0.02s-0.01,0.01-0.01,0.03v-0.01
			l0.01-0.02h0.01l-0.02,0.04c-0.05,0.13-0.08,0.23-0.09,0.3l-0.03,0.12l-0.01,0.01l0.01-0.04l-0.01,0.07v0.05
			c0,0.01,0,0.02,0.01,0.03v0.02c0.01,0.02,0.01,0.04,0.01,0.06c0,0,0.01,0,0.01,0.01s0,0.01,0,0.02s0,0.01,0.01,0.01v-0.01
			c-0.01-0.01-0.02-0.02-0.02-0.03s0-0.01,0-0.01l0.01,0.01c0,0,0,0.01,0.01,0.02s0.01,0.02,0.01,0.03s0.01,0.02,0.01,0.04
			s0.01,0.02,0.02,0.02c-0.02,0-0.02-0.01-0.02-0.02l-0.01-0.01h0.01c0,0,0.03,0.03,0.08,0.08l0.02,0.02l-0.01-0.01
			c0,0-0.01,0-0.01,0s-0.01,0-0.01-0.01s-0.01,0-0.01-0.01l0.07,0.04c0.02,0.02,0.05,0.04,0.07,0.04l-0.05-0.01
			c0.01,0,0.02,0,0.03,0.01s0.04,0.01,0.11,0.03c0.02,0.01,0.04,0.01,0.06,0.01l-0.04-0.01c0.01,0,0.04,0.01,0.07,0.01
			s0.08,0,0.11,0c0.01,0,0.03-0.01,0.08-0.01c0,0-0.01,0.01-0.02,0.01h-0.02l0.09-0.02l0.17-0.05l0.02-0.01
			c0-0.01,0.01-0.01,0.02-0.01l0.01-0.01h0.01l0.05-0.02c0.07-0.04,0.15-0.09,0.22-0.14l0.02-0.01c0,0-0.01,0.01-0.01,0.01
			s-0.01,0.01-0.01,0.01s0,0-0.01,0c0.13-0.11,0.24-0.21,0.32-0.32l0.02-0.02l-0.01,0.02v-0.01c0,0,0-0.01,0.01-0.02
			c0.08-0.12,0.16-0.24,0.22-0.38l0.02-0.04v-0.01l0.01-0.02c0-0.02,0.01-0.03,0.02-0.04c0.02-0.09,0.04-0.17,0.06-0.24l0.01-0.01
			c0-0.02,0-0.03,0.01-0.04l-0.01,0.02c0.01-0.08,0.01-0.15,0.01-0.23c0-0.05,0-0.09-0.01-0.13v-0.05l-0.01-0.04l0.01,0.02V40
			l0.01-0.02c0-0.03-0.01-0.08-0.04-0.16c-0.01-0.03-0.04-0.13-0.09-0.29c0.01,0.02,0.01,0.04,0.01,0.04s0,0,0.01,0l-0.02-0.04
			c-0.04-0.09-0.09-0.17-0.14-0.25c-0.03-0.04-0.05-0.06-0.05-0.08h-0.01l0.02,0.03l-0.04-0.05c-0.08-0.09-0.16-0.18-0.26-0.25
			l0.02,0.02v-0.01l-0.05-0.03c-0.06-0.05-0.17-0.11-0.33-0.2c-0.23-0.12-0.45-0.27-0.63-0.45c-0.25-0.27-0.38-0.59-0.38-0.94
			c0-0.06,0-0.13,0.01-0.19c0.07-0.41,0.24-0.77,0.5-1.08c0.12-0.16,0.27-0.3,0.43-0.43c0.27-0.2,0.55-0.3,0.85-0.3
			c0.37,0,0.67,0.15,0.89,0.45c0.13,0.18,0.19,0.38,0.19,0.6c0,0.21-0.04,0.42-0.13,0.62c-0.18,0.35-0.43,0.64-0.75,0.88
			c-0.33,0.26-0.7,0.46-1.1,0.6c-0.04,0.01-0.08,0.02-0.12,0.02c-0.07,0-0.14-0.03-0.22-0.08s-0.14-0.13-0.18-0.23
			c-0.01-0.04-0.02-0.08-0.02-0.12c0-0.07,0.03-0.15,0.08-0.23s0.13-0.14,0.23-0.18l0.15-0.05L128,37.61c0,0,0.01-0.01,0.02-0.01
			s0.02,0,0.02-0.01l0.04-0.02c0.15-0.07,0.31-0.16,0.47-0.28c0.02-0.01,0.03-0.02,0.05-0.04l0.02-0.02c0,0-0.01,0-0.02,0.01
			c0.18-0.14,0.32-0.27,0.41-0.39c0.02-0.02,0.03-0.03,0.04-0.04l-0.02,0.02v0.01l0.02-0.03c0.03-0.04,0.06-0.09,0.08-0.13
			l0.03-0.05c0-0.01,0-0.02,0.01-0.03s0.01-0.02,0.01-0.02l-0.01,0.02l0.01-0.03c0-0.01,0.01-0.04,0.03-0.1v-0.11
			c0-0.01,0-0.02,0-0.04s-0.01-0.04-0.03-0.07v-0.02c0,0.01,0,0.02,0.01,0.03v0.01l-0.04-0.06c0,0-0.01-0.01-0.01-0.01
			s-0.01,0-0.01-0.01v0.01c0,0,0.01,0,0.01,0.01s0.01,0.01,0.01,0.01v-0.01c-0.01,0-0.02-0.01-0.03-0.02l-0.02-0.02l0.02,0.01
			c-0.03-0.01-0.05-0.03-0.07-0.04h-0.01h0.01c0,0,0,0.01,0.01,0.01s0.01,0,0.01,0.01s0.01,0,0.01,0.01c0,0-0.01-0.01-0.02-0.01
			s-0.03-0.01-0.05-0.02h-0.11l0.04-0.01l-0.01,0.01c-0.07,0.01-0.11,0.02-0.13,0.04l-0.02,0.01l0.03-0.01l-0.01,0.01
			c-0.02,0.01-0.04,0.02-0.05,0.02s-0.05,0.03-0.12,0.08l-0.04,0.02v-0.01c0,0,0.01-0.01,0.01-0.01s0,0,0.01-0.01h0.01
			c0,0,0,0.01-0.01,0.01l-0.13,0.13l-0.18,0.2h-0.01h0.01l0.02-0.02v-0.01c0,0.01-0.01,0.03-0.04,0.05c0,0.01-0.01,0.02-0.02,0.03
			c-0.05,0.07-0.09,0.15-0.13,0.22l-0.01,0.02c-0.01,0.02-0.02,0.04-0.02,0.05v0.01l0.01-0.02c-0.03,0.07-0.05,0.15-0.07,0.23
			c-0.01,0.04-0.01,0.07-0.02,0.07l0.01-0.01v0.11c0,0.02,0,0.03,0.01,0.04v0.02c0,0-0.01-0.02-0.01-0.04l-0.01-0.01h0.01
			c0,0.02,0,0.03,0.01,0.03l0.01,0.06l0.02,0.06c0,0-0.01,0-0.01-0.01s0-0.01,0-0.01s0-0.01-0.01-0.01l0.06,0.11
			c0,0,0.01,0.01,0.02,0.02l0.01,0.02v-0.01c0,0-0.01-0.01-0.03-0.02h0.01c0,0,0.01,0.01,0.01,0.01s0.01,0.01,0.01,0.01
			s0.01,0.01,0.01,0.01c0.04,0.04,0.08,0.08,0.13,0.12l-0.02-0.02h0.01c0,0,0.01,0.01,0.01,0.01s0.01,0.01,0.02,0.01
			c0.03,0.02,0.14,0.09,0.33,0.2c0.78,0.43,1.23,1.05,1.35,1.88c0.01,0.11,0.02,0.21,0.02,0.31c0,0.63-0.23,1.2-0.7,1.69
			c-0.28,0.29-0.61,0.5-0.98,0.61C128.16,42.53,128,42.55,127.84,42.55z"/>
	</defs>
	<linearGradient id="SVGID_2_" gradientUnits="userSpaceOnUse" x1="17.5977" y1="37.1509" x2="132.0479" y2="37.1509">
		<stop  offset="0.1931" style="stop-color:#82027E"/>
		<stop  offset="0.2913" style="stop-color:#7E027D"/>
		<stop  offset="0.4016" style="stop-color:#72027D"/>
		<stop  offset="0.5177" style="stop-color:#5E027D"/>
		<stop  offset="0.6379" style="stop-color:#43017D"/>
		<stop  offset="0.76" style="stop-color:#21017C"/>
		<stop  offset="0.8016" style="stop-color:#13017C"/>
	</linearGradient>
	<use xlink:href="#SVGID_1_"  style="overflow:visible;fill:url(#SVGID_2_);"/>
	<clipPath id="SVGID_3_">
		<use xlink:href="#SVGID_1_"  style="overflow:visible;"/>
	</clipPath>
</g>
<g id="Camada_2">
	<path class="st0" d="M128.75,38.97c0.07-0.05,0.14-0.1,0.2-0.16c0.04-0.03,0.08-0.06,0.13-0.07c0.08-0.02,0.17-0.03,0.25-0.04
		c0.1-0.01,0.19-0.03,0.29-0.04c0.38-0.06,0.77-0.13,1.14-0.23c0.38-0.09,0.75-0.2,1.12-0.32c0.24-0.08,0.48-0.17,0.71-0.26
		c0.23-0.09,0.46-0.19,0.69-0.28c0.06-0.02,0.11-0.05,0.17-0.07c0.01-0.01,0.03-0.01,0.04-0.01c0.01,0,0.03,0,0.04,0
		c0.05-0.01,0.09-0.03,0.14-0.04c0.05-0.02,0.1-0.03,0.14-0.05c0.14-0.04,0.28-0.08,0.42-0.11c0.2-0.04,0.39-0.08,0.59-0.1
		c0.2-0.02,0.4-0.03,0.6-0.03c0.04,0,0.09,0.01,0.13,0c0.01,0,0.03-0.01,0.04-0.01c0.05,0,0.1,0,0.15,0.01
		c0.05,0,0.11,0.01,0.16,0.01c0.44,0.04,0.87,0.11,1.29,0.23c1.31,0.36,2.64,0.68,3.89,1.21c1.29,0.55,2.66,1,4.07,0.94
		c0.44-0.02,0.89-0.1,1.27-0.32s0.69-0.61,0.73-1.05c0.04-0.44-0.25-0.91-0.68-1.01"/>
</g>
</svg>
